<svg xmlns="http://www.w3.org/2000/svg" width="14" height="14"><path fill="#fff" d="M12.758 10.137a2.624 2.624 0 0 1-2.621 2.62H3.863a2.624 2.624 0 0 1-2.62-2.62V3.863a2.624 2.624 0 0 1 2.62-2.62h6.273a2.624 2.624 0 0 1 2.622 2.62v6.274zM10.136 0H3.863A3.868 3.868 0 0 0 0 3.863v6.274A3.868 3.868 0 0 0 3.863 14h6.273A3.868 3.868 0 0 0 14 10.137V3.862A3.868 3.868 0 0 0 10.136 0z"/><path fill="#fff" d="M7 9.365A2.368 2.368 0 0 1 4.635 7 2.368 2.368 0 0 1 7 4.635 2.368 2.368 0 0 1 9.365 7 2.368 2.368 0 0 1 7 9.365zm0-5.972A3.612 3.612 0 0 0 3.393 7 3.611 3.611 0 0 0 7 10.607 3.611 3.611 0 0 0 10.607 7 3.611 3.611 0 0 0 7 3.393zm3.759-1.053a.914.914 0 0 0-.911.91c0 .24.098.475.267.645a.918.918 0 0 0 .644.266.92.92 0 0 0 .644-.266.915.915 0 0 0 0-1.289.915.915 0 0 0-.644-.267z"/></svg>