<svg xmlns="http://www.w3.org/2000/svg" width="178" height="25"><path fill="#fff" d="M33.746 14.663l-.732-.724.428-.424-.124-.122.303-.3.124.122.124-.123.304.3-.124.123.427.424zM10.71 1.249h-.925V.05h.925zm3.868 0h-1.934V.05h1.934zm3.87 0h-1.935V.05h1.934zm3.033 1.264l-.125-.124a3.92 3.92 0 0 0-1.256-.836l.468-1.104c.617.256 1.17.625 1.643 1.093l.125.124zm2.736 2.71l-1.368-1.355.855-.847 1.367 1.355zm2.735 2.71l-1.367-1.355.854-.847 1.368 1.355zm2.736 2.71L28.32 9.288l.855-.847 1.368 1.355zm2.735 2.71l-1.368-1.355.855-.847 1.368 1.356zM8.814 1.374L7.479.05h1.888v.177l.302.299-.302.299v.423H8.94z"/><path fill="#fff" d="M51.234 1.249H49.3V.05h1.934zm3.137.606a1.621 1.621 0 0 0-1.224-.605L53.19.053c.848.03 1.603.405 2.126 1.055zm-8.043.342l-.854-.847 1.31-1.299h.582v.926l.096.096-.096.096v.08h-.08zm-35.542 1.13L9.418 1.972l.854-.847L11.64 2.48zm32.807 1.58l-.855-.847 1.368-1.355.855.847zm11.135.38l-.855-.848.382-.378c.255-.252.412-.548.47-.88l1.191.2a2.814 2.814 0 0 1-.806 1.527zm-41.207.75l-1.368-1.355.855-.847 1.368 1.355zm27.336 1.58l-.854-.847 1.367-1.355.855.847zm11.136.379l-.855-.847 1.368-1.355.854.847zm-35.737.751l-1.368-1.355.855-.846L17.111 7.9zm21.866 1.58l-.855-.847 1.368-1.355.855.847zm11.135.379l-.855-.847 1.368-1.355.855.847zm-30.265.751l-1.368-1.355.855-.846 1.368 1.355zm16.394 1.58l-.855-.847 1.368-1.355.855.847zm11.135.38l-.854-.847 1.368-1.356.854.847zm-24.794.75l-1.367-1.355.854-.846 1.368 1.355zm22.059 1.96l-.855-.847 1.368-1.356.855.847zm-19.323.75l-1.368-1.355.855-.846 1.368 1.355zm16.588 1.96l-.855-.847 1.368-1.355.854.846zm-13.852.75l-1.368-1.354.854-.847 1.368 1.355zm11.116 1.96l-.855-.847 1.368-1.355.855.847zm-8.381.75l-1.368-1.354.855-.847 1.368 1.355zm5.58 1.995zm-.746-.942c.053-.042.105-.087.154-.135l1.17-1.16.855.847-1.171 1.16c-.083.083-.172.16-.263.23zm-1.565 1.494a2.865 2.865 0 0 1-1.488-.782l-.413-.41.854-.846.414.41c.236.234.534.39.86.452z"/><path fill="#fff" d="M8.673 1.198l13.54 13.414 12.39-12.274a3.924 3.924 0 0 1 2.778-1.14h8.18L23.39 23.164a1.66 1.66 0 0 1-1.176.483 1.66 1.66 0 0 1-1.175-.483L1.703 4.01a1.613 1.613 0 0 1-.36-1.795 1.64 1.64 0 0 1 1.536-1.017zm13.54 23.646c.767 0 1.488-.296 2.03-.833L48.48 0H37.381a5.13 5.13 0 0 0-3.633 1.491L22.213 12.918 9.173 0H2.88C1.695 0 .679.673.226 1.756a2.782 2.782 0 0 0 .623 3.1l19.334 19.155a2.865 2.865 0 0 0 2.03.833zm75.311-10.969c.077.077.115.186.115.327v.288c0 .128-.042.23-.125.307a.45.45 0 0 1-.317.116h-7.644a.415.415 0 0 1-.307-.116.416.416 0 0 1-.115-.307V1.91a.45.45 0 0 1 .115-.317.399.399 0 0 1 .307-.125h7.49c.141 0 .25.039.327.116a.442.442 0 0 1 .115.326v.288c0 .128-.041.23-.124.308a.45.45 0 0 1-.317.115H90.34v4.897h6.281c.14 0 .25.039.327.116a.442.442 0 0 1 .115.326v.288c0 .128-.042.23-.125.307a.45.45 0 0 1-.317.116h-6.28v5.09h6.856c.14 0 .25.038.327.114zM85.404 1.584a.442.442 0 0 1 .116.326v12.58c0 .128-.042.23-.125.307a.45.45 0 0 1-.317.116h-.346a.415.415 0 0 1-.307-.116.415.415 0 0 1-.115-.307V8.67h-7.414v5.82c0 .128-.042.23-.125.307a.449.449 0 0 1-.317.116h-.346a.415.415 0 0 1-.307-.116.415.415 0 0 1-.115-.307V1.91a.45.45 0 0 1 .115-.317.399.399 0 0 1 .307-.125h.346c.14 0 .25.039.327.116a.441.441 0 0 1 .115.326v5.608h7.414V1.91a.45.45 0 0 1 .115-.317.398.398 0 0 1 .307-.125h.346c.14 0 .25.039.326.116zm-12.157 0c.077.077.115.185.115.326v.288c0 .128-.042.23-.125.308a.45.45 0 0 1-.317.115h-3.784V14.49c0 .128-.041.23-.124.307a.45.45 0 0 1-.317.116h-.346a.415.415 0 0 1-.307-.116.415.415 0 0 1-.116-.307V2.62h-3.803a.416.416 0 0 1-.307-.114.416.416 0 0 1-.115-.308V1.91a.45.45 0 0 1 .115-.317.4.4 0 0 1 .307-.125h8.797c.14 0 .25.039.327.116zm37.356.403c.039-.18.112-.31.221-.394a.6.6 0 0 1 .375-.125h2.516c.115 0 .214.042.297.125a.407.407 0 0 1 .125.298l-.019.153-2.477 12.139c-.026.18-.132.345-.318.5a.98.98 0 0 1-.643.23h-1.594a.894.894 0 0 1-.615-.221 1.167 1.167 0 0 1-.345-.509l-1.44-4.34-1.441 4.34a1.17 1.17 0 0 1-.346.509.895.895 0 0 1-.615.22h-1.594a.98.98 0 0 1-.643-.23c-.186-.154-.292-.32-.317-.499L99.252 2.044l-.019-.153c0-.115.041-.214.125-.298a.406.406 0 0 1 .297-.125h2.516a.6.6 0 0 1 .375.125c.109.084.183.215.221.394l1.23 6.492 1.132-3.477c.128-.37.346-.557.653-.557h1.806c.307 0 .525.186.653.557l1.133 3.477zm8.97 9.853h6.069a.5.5 0 0 1 .365.153.5.5 0 0 1 .154.365v2.036a.499.499 0 0 1-.154.365.498.498 0 0 1-.365.154h-9.104a.497.497 0 0 1-.365-.154.498.498 0 0 1-.154-.365V1.987c0-.14.052-.262.154-.365a.498.498 0 0 1 .365-.154h8.95a.5.5 0 0 1 .365.154.498.498 0 0 1 .154.365v2.036a.497.497 0 0 1-.154.365.499.499 0 0 1-.365.153h-5.915v2.075h5.493a.5.5 0 0 1 .365.153.5.5 0 0 1 .154.365V9.17a.498.498 0 0 1-.154.365.498.498 0 0 1-.365.154h-5.493zm19.311-6.483a.385.385 0 0 1-.278.125h-2.516c-.18 0-.32-.022-.423-.067a1.353 1.353 0 0 1-.345-.24 23.174 23.174 0 0 1-.25-.26c-.14-.146-.362-.278-.663-.393a2.92 2.92 0 0 0-1.046-.173c-.55 0-1.002.074-1.354.221-.353.147-.529.4-.529.759 0 .256.109.458.327.605.217.147.554.278 1.008.393.455.116 1.246.289 2.372.519 1.447.295 2.51.756 3.189 1.383.678.627 1.018 1.524 1.018 2.689 0 .845-.254 1.584-.76 2.218-.505.634-1.21 1.12-2.112 1.46-.903.339-1.924.509-3.063.509-1.102 0-2.1-.192-2.997-.577-.896-.384-1.6-.883-2.112-1.498-.513-.614-.781-1.248-.807-1.901 0-.115.041-.214.125-.298a.385.385 0 0 1 .278-.125h2.516c.282 0 .525.09.73.27.039.038.141.15.307.335.167.186.42.353.76.5.339.147.739.22 1.2.22 1.587 0 2.381-.338 2.381-1.017 0-.218-.112-.4-.336-.548-.224-.147-.54-.271-.95-.374-.41-.102-1.064-.25-1.96-.442l-.864-.173c-1.306-.281-2.266-.752-2.88-1.411-.615-.66-.923-1.54-.923-2.641 0-.743.224-1.431.672-2.065.448-.634 1.086-1.14 1.911-1.517.826-.378 1.777-.567 2.853-.567 1.037 0 1.984.196 2.842.586.858.39 1.533.88 2.027 1.47.492.588.752 1.165.777 1.728a.406.406 0 0 1-.125.297zm12.533-3.735a.5.5 0 0 1 .154.365v2.036a.498.498 0 0 1-.154.365.5.5 0 0 1-.365.153h-3.38v9.853a.499.499 0 0 1-.154.365.498.498 0 0 1-.365.154h-2.516a.498.498 0 0 1-.365-.154.497.497 0 0 1-.153-.365V4.54h-3.38a.498.498 0 0 1-.366-.153.497.497 0 0 1-.153-.365V1.987c0-.14.05-.262.153-.365a.498.498 0 0 1 .365-.154h10.314a.5.5 0 0 1 .365.154zm9.642 4.955c.039.423.058.954.058 1.594 0 .628-.02 1.172-.058 1.633-.064.679-.298 1.22-.701 1.623-.403.403-.983.605-1.738.605-.756 0-1.335-.202-1.739-.605-.403-.404-.637-.944-.7-1.623a19.937 19.937 0 0 1-.058-1.633c0-.64.019-1.171.057-1.594.064-.678.298-1.22.701-1.623.404-.403.983-.605 1.739-.605.755 0 1.335.202 1.738.605.403.403.637.945.701 1.623zm-2.44-5.3c-1.216 0-2.266.23-3.15.69-.883.462-1.564 1.086-2.044 1.873a5.543 5.543 0 0 0-.798 2.641 50.144 50.144 0 0 0-.038 1.729c0 .435.013.999.038 1.69a5.54 5.54 0 0 0 .798 2.64c.48.788 1.161 1.412 2.045 1.873.883.461 1.933.692 3.15.692 1.216 0 2.266-.23 3.15-.692.883-.46 1.565-1.085 2.045-1.872a5.55 5.55 0 0 0 .797-2.641c.026-.346.039-.91.039-1.69 0-.794-.013-1.37-.039-1.729a5.554 5.554 0 0 0-.797-2.64c-.48-.788-1.162-1.412-2.045-1.873-.884-.461-1.934-.692-3.15-.692zm16.48 13.492a.828.828 0 0 1-.288-.298l-4.399-6.569v6.492a.498.498 0 0 1-.153.365.498.498 0 0 1-.365.154h-2.516a.497.497 0 0 1-.365-.154.498.498 0 0 1-.154-.365V1.987a.5.5 0 0 1 .154-.365.498.498 0 0 1 .365-.154h1.997a.87.87 0 0 1 .5.144.84.84 0 0 1 .288.298l4.398 6.569V1.987a.5.5 0 0 1 .154-.365.498.498 0 0 1 .365-.154h2.516a.5.5 0 0 1 .365.154.5.5 0 0 1 .153.365v12.407a.5.5 0 0 1-.153.365.499.499 0 0 1-.365.154h-1.998a.864.864 0 0 1-.5-.144zM66.54 24.606a.15.15 0 0 1 .04.11v.098a.134.134 0 0 1-.043.104.153.153 0 0 1-.107.039h-2.586a.14.14 0 0 1-.104-.04.14.14 0 0 1-.039-.103v-4.256c0-.043.013-.079.04-.107a.134.134 0 0 1 .103-.043h2.534c.047 0 .084.013.11.04.026.026.04.062.04.11v.097a.135.135 0 0 1-.043.105.153.153 0 0 1-.107.038H64.11v1.657h2.125a.15.15 0 0 1 .11.04c.027.025.04.062.04.11v.097a.134.134 0 0 1-.043.104.152.152 0 0 1-.107.039H64.11v1.722h2.32a.15.15 0 0 1 .11.039zm5.186.208a.134.134 0 0 1-.043.104.152.152 0 0 1-.107.039h-.117a.14.14 0 0 1-.104-.04.14.14 0 0 1-.039-.103v-4.256c0-.043.013-.079.04-.107a.134.134 0 0 1 .103-.043h.136c.057 0 .102.027.137.078l2.398 3.665v-3.593c0-.043.013-.079.039-.107a.135.135 0 0 1 .104-.043h.116c.048 0 .085.013.11.04.027.026.04.062.04.11v4.25a.153.153 0 0 1-.04.107.135.135 0 0 1-.103.042h-.143a.158.158 0 0 1-.136-.078l-2.391-3.652zm8.03-2.132c0 .26.003.455.007.585.017.468.142.813.373 1.033.232.221.55.332.952.332.403 0 .728-.115.975-.345.247-.229.37-.57.37-1.02v-.33h-1.13a.134.134 0 0 1-.104-.043.151.151 0 0 1-.04-.107v-.091c0-.044.014-.08.04-.108a.134.134 0 0 1 .104-.042h1.39c.048 0 .085.013.11.039a.15.15 0 0 1 .04.11v.573c0 .346-.07.651-.208.915a1.48 1.48 0 0 1-.605.618 1.904 1.904 0 0 1-.942.22c-.541 0-.961-.155-1.26-.467-.299-.312-.457-.73-.475-1.254-.004-.13-.006-.336-.006-.618 0-.281.002-.487.006-.617.018-.524.176-.942.475-1.254.299-.312.719-.468 1.26-.468.369 0 .678.07.93.208.25.14.438.303.562.491.123.188.189.356.198.504v.012a.105.105 0 0 1-.04.085.147.147 0 0 1-.097.032h-.143c-.039 0-.067-.008-.084-.026a.283.283 0 0 1-.052-.103 1.146 1.146 0 0 0-.426-.579c-.21-.156-.492-.234-.848-.234-.402 0-.72.11-.952.332-.231.22-.356.565-.373 1.033-.004.13-.007.325-.007.584zm10.695 1.924a.15.15 0 0 1 .04.11v.098a.135.135 0 0 1-.043.104.153.153 0 0 1-.107.039h-2.586a.14.14 0 0 1-.104-.04.14.14 0 0 1-.039-.103v-4.256c0-.043.013-.079.039-.107a.134.134 0 0 1 .104-.043h2.534c.047 0 .084.013.11.04.026.026.04.062.04.11v.097a.135.135 0 0 1-.043.105.153.153 0 0 1-.107.038H88.02v1.657h2.125a.15.15 0 0 1 .11.04c.026.025.04.062.04.11v.097a.134.134 0 0 1-.043.104.151.151 0 0 1-.107.039H88.02v1.722h2.32a.15.15 0 0 1 .11.039zm5.185.208a.134.134 0 0 1-.042.104.151.151 0 0 1-.107.039h-.117a.14.14 0 0 1-.104-.04.14.14 0 0 1-.039-.103v-4.256c0-.043.013-.079.04-.107a.133.133 0 0 1 .103-.043h.136c.057 0 .102.027.137.078l2.397 3.665v-3.593c0-.043.014-.079.04-.107a.134.134 0 0 1 .103-.043h.117c.048 0 .085.013.11.04.027.026.04.062.04.11v4.25a.153.153 0 0 1-.04.107.135.135 0 0 1-.103.042h-.143a.158.158 0 0 1-.137-.078l-2.39-3.652zm10.644-.208a.15.15 0 0 1 .038.11v.098a.134.134 0 0 1-.042.104.153.153 0 0 1-.107.039h-2.586a.14.14 0 0 1-.104-.04.14.14 0 0 1-.039-.103v-4.256c0-.043.013-.079.039-.107a.134.134 0 0 1 .104-.043h2.534c.047 0 .084.013.11.04.026.026.04.062.04.11v.097a.136.136 0 0 1-.043.105.154.154 0 0 1-.107.038h-2.268v1.657h2.125a.15.15 0 0 1 .11.04c.026.025.04.062.04.11v.097a.134.134 0 0 1-.043.104.152.152 0 0 1-.107.039h-2.125v1.722h2.32a.15.15 0 0 1 .11.039zm7.615 0a.15.15 0 0 1 .039.11v.098a.134.134 0 0 1-.043.104.153.153 0 0 1-.107.039h-2.586a.14.14 0 0 1-.104-.04.14.14 0 0 1-.039-.103v-4.256c0-.043.013-.079.04-.107a.133.133 0 0 1 .103-.043h2.534c.048 0 .085.013.11.04.027.026.04.062.04.11v.097a.135.135 0 0 1-.043.105.153.153 0 0 1-.107.038h-2.268v1.657h2.125a.15.15 0 0 1 .11.04c.027.025.04.062.04.11v.097a.134.134 0 0 1-.043.104.152.152 0 0 1-.107.039h-2.125v1.722h2.32c.048 0 .085.013.11.039zm5.185-1.962v-1.846h1.215c.377 0 .657.077.841.231.184.154.276.384.276.692 0 .308-.092.538-.276.692-.184.154-.464.23-.841.23zm2.345-1.904c-.264-.221-.63-.332-1.098-.332h-1.514a.134.134 0 0 0-.104.043.152.152 0 0 0-.039.107v4.256a.14.14 0 0 0 .04.104c.025.026.06.039.103.039h.117c.044 0 .08-.013.108-.04a.134.134 0 0 0 .042-.103v-1.78h1.338l1.033 1.747c.035.06.069.105.101.134.033.028.081.042.147.042h.077a.125.125 0 0 0 .091-.04.125.125 0 0 0 .04-.09.162.162 0 0 0-.02-.071l-1.046-1.781c.316-.074.558-.216.727-.426.17-.21.254-.486.254-.828 0-.433-.132-.76-.397-.981zm5.543 4.178a.141.141 0 0 1-.104.039h-.124a.14.14 0 0 1-.104-.04.14.14 0 0 1-.038-.103V20.55a.14.14 0 0 1 .038-.103.139.139 0 0 1 .104-.04h.124a.14.14 0 0 1 .104.04.14.14 0 0 1 .039.103v4.263a.14.14 0 0 1-.04.104zm5.438-.104a.134.134 0 0 1-.042.104.152.152 0 0 1-.107.039h-.117a.14.14 0 0 1-.104-.04.14.14 0 0 1-.04-.103v-4.256c0-.043.014-.079.04-.107a.134.134 0 0 1 .104-.043h.136c.056 0 .102.027.137.078l2.397 3.665v-3.593c0-.043.013-.079.039-.107a.135.135 0 0 1 .104-.043h.117c.048 0 .084.013.11.04.026.026.04.062.04.11v4.25a.153.153 0 0 1-.04.107.135.135 0 0 1-.103.042h-.143a.158.158 0 0 1-.137-.078l-2.39-3.652zm8.031-2.132c0 .26.003.455.007.585.017.468.141.813.373 1.033.232.221.55.332.952.332.403 0 .728-.115.975-.345.247-.229.37-.57.37-1.02v-.33h-1.13a.135.135 0 0 1-.105-.043.151.151 0 0 1-.038-.107v-.091c0-.044.013-.08.038-.108a.134.134 0 0 1 .105-.042h1.39c.048 0 .085.013.11.039.027.026.04.063.04.11v.573c0 .346-.07.651-.208.915a1.48 1.48 0 0 1-.605.618 1.903 1.903 0 0 1-.942.22c-.541 0-.962-.155-1.26-.467-.3-.312-.458-.73-.475-1.254-.004-.13-.006-.336-.006-.618 0-.281.002-.487.006-.617.017-.524.176-.942.475-1.254.298-.312.719-.468 1.26-.468.368 0 .678.07.93.208.25.14.438.303.562.491.123.188.189.356.198.504v.012a.105.105 0 0 1-.04.085.147.147 0 0 1-.097.032h-.143c-.039 0-.067-.008-.084-.026a.283.283 0 0 1-.052-.103 1.147 1.147 0 0 0-.426-.579c-.21-.156-.493-.234-.848-.234-.403 0-.72.11-.952.332-.232.22-.356.565-.373 1.033-.004.13-.007.325-.007.584z"/></svg>