<svg xmlns="http://www.w3.org/2000/svg" width="21" height="16"><path fill="#fff" d="M19.854 13.429c0 .77-.626 1.396-1.396 1.396H2.57c-.77 0-1.396-.626-1.396-1.396V2.575c0-.77.626-1.396 1.396-1.396h15.883c.77 0 1.396.626 1.396 1.396V13.43zM18.458 0H2.57A2.573 2.573 0 0 0 0 2.571v10.858A2.573 2.573 0 0 0 2.571 16h15.883a2.573 2.573 0 0 0 2.57-2.571V2.575A2.57 2.57 0 0 0 18.458 0z"/><path fill="#fff" d="M13.26 7.865l5.14-4.611a.59.59 0 0 0 .044-.831.59.59 0 0 0-.831-.043l-7.09 6.364L9.14 7.508c-.005-.004-.009-.008-.009-.013a.868.868 0 0 0-.096-.082L3.406 2.375a.587.587 0 0 0-.83.048.587.587 0 0 0 .047.83l5.203 4.651-5.181 4.85a.59.59 0 0 0 .805.862l5.26-4.92 1.426 1.275a.587.587 0 0 0 .783-.005l1.466-1.313 5.229 4.967a.587.587 0 0 0 .81-.853z"/></svg>