<svg xmlns="http://www.w3.org/2000/svg" width="71" height="70"><path fill="#fff" d="M3.205 58.332H19.54v9.333H3.205zm9.334-11.666h16.333v9.333H12.54zm-9.334-7H5.54a1.167 1.167 0 1 0 0-2.333H3.205v-2.334H19.54v9.333H3.205zm24.84-1.09a2.67 2.67 0 0 0 2.723 1.04l7.438-1.581v6.297H21.872V35h6.297l-.361.673a2.68 2.68 0 0 0 .238 2.904zm13.021-22.643a.244.244 0 0 1 .213-.137l.023-.001a.384.384 0 0 1 .31.165l5.27 7.027-4.813 3.61a1.167 1.167 0 0 0 1.4 1.868l4.814-3.61 5.271 7.026a.376.376 0 0 1 .064.366.245.245 0 0 1-.19.166l-23.146 4.922a.38.38 0 0 1-.37-.159.372.372 0 0 1-.048-.4zm15.807 28.4H40.539v-6.794l11.941-2.54h4.393zm9.333 11.666H49.872v-9.333h16.334zm-9.333 11.666H40.539v-9.333h16.334zm-25.667-21h16.333V56H31.206zm-9.334 11.667h16.334v9.333H21.872zM66.024 2.565a1.167 1.167 0 0 1 1.633.233l.649.865a1.167 1.167 0 0 1-.234 1.633l-8.693 6.521-2.048-2.73zM2.04 70h56c.645 0 1.167-.523 1.167-1.167v-10.5h8.166c.645 0 1.167-.522 1.167-1.166V45.499c0-.644-.522-1.167-1.167-1.167h-8.166v-10.5c0-.644-.523-1.167-1.167-1.167h-2.141a2.698 2.698 0 0 0-.477-2.184l-5.272-7.027 2.434-1.826a4.033 4.033 0 0 0 1.61-3.456l-.117-2.101a1.705 1.705 0 0 1 .68-1.46l2.433-1.826 1.025 1.365a1.166 1.166 0 0 0 1.633.233l9.626-7.221a3.5 3.5 0 0 0 .7-4.899l-.65-.865a3.504 3.504 0 0 0-4.9-.699L55 7.92a1.167 1.167 0 0 0-.233 1.634l1.023 1.366-2.433 1.825a4.03 4.03 0 0 0-1.61 3.456l.117 2.101a1.703 1.703 0 0 1-.68 1.46l-2.433 1.826-5.272-7.027a2.705 2.705 0 0 0-2.375-1.09 2.588 2.588 0 0 0-2.093 1.357l-9.586 17.838H2.039c-.645 0-1.167.523-1.167 1.167V45.5c0 .644.522 1.167 1.167 1.167h8.166V56H2.04c-.645 0-1.167.522-1.167 1.167v11.666c0 .645.522 1.167 1.167 1.167z"/><path fill="#fff" d="M16.039 38.499c0-.644-.522-1.167-1.167-1.167h-4.667a1.167 1.167 0 0 0 0 2.334h4.667c.645 0 1.167-.523 1.167-1.167z"/></svg>