<svg xmlns="http://www.w3.org/2000/svg" width="71" height="70"><path fill="#fff" d="M35.864 57.582a5.652 5.652 0 0 1-5.645-5.646 5.652 5.652 0 0 1 5.645-5.645 5.652 5.652 0 0 1 5.645 5.645 5.652 5.652 0 0 1-5.645 5.646zm0-13.549c-4.358 0-7.903 3.547-7.903 7.903 0 4.357 3.545 7.904 7.903 7.904s7.904-3.547 7.904-7.904c0-4.356-3.546-7.903-7.904-7.903zM5.38 38.388V36.13h6.775v2.258zm0 4.516v-2.258h6.775v2.258zm54.194-4.516V36.13h6.774v2.258zm0 4.516v-2.258h6.774v2.258z"/><path fill="#fff" d="M68.606 45.162h-11.29v-11.29h11.29zM39.251 16.936v-2.258a2.26 2.26 0 0 1 2.258-2.258 2.26 2.26 0 0 1 2.259 2.258 2.26 2.26 0 0 1-2.259 2.258zm2.822 8.486l-.564.326v2.479h-2.258v-9.033h2.258a4.52 4.52 0 0 0 4.517-4.516 4.52 4.52 0 0 0-4.517-4.516 4.52 4.52 0 0 0-4.516 4.516v2.258h-2.258v-2.258a4.52 4.52 0 0 0-4.516-4.516 4.52 4.52 0 0 0-4.516 4.516 4.52 4.52 0 0 0 4.516 4.516h2.258v9.033H30.22v-2.479l-.563-.326a12.43 12.43 0 0 1-6.208-11.035c.148-6.437 5.499-11.873 11.929-12.118a12.323 12.323 0 0 1 9.1 3.46 12.318 12.318 0 0 1 3.807 8.95c0 4.407-2.38 8.524-6.211 10.743zm-.678 9.579a5.656 5.656 0 0 1-5.53 4.516 5.656 5.656 0 0 1-5.532-4.516h11.062zm-6.66-6.774v-9.033h2.258v9.033zm-2.258-11.29H30.22a2.26 2.26 0 0 1-2.258-2.259 2.26 2.26 0 0 1 2.258-2.258 2.26 2.26 0 0 1 2.258 2.258zm9.032 13.548v2.258H30.22v-2.258zm3.797 8.54l3.47 3.47-2.17 3.191.306.595c.313.612.572 1.232.77 1.844l.205.637 3.784.721v4.907l-3.785.721-.205.637a12.418 12.418 0 0 1-.77 1.844l-.306.595 2.17 3.191-3.47 3.469-3.192-2.169-.596.306c-.616.315-1.236.575-1.842.77l-.637.207-.72 3.782H33.41l-.722-3.784-.636-.206a12.375 12.375 0 0 1-1.843-.77l-.596-.306-3.192 2.169-3.47-3.469 2.17-3.191-.305-.595a12.54 12.54 0 0 1-.77-1.844l-.206-.637-3.783-.72v-4.907l3.784-.721.206-.637c.197-.612.456-1.232.77-1.844l.306-.595-2.17-3.192 3.47-3.468 3.192 2.169.596-.306c.385-.199.776-.368 1.166-.52a7.835 7.835 0 0 0 4.486 1.406 7.848 7.848 0 0 0 4.49-1.407c.387.153.776.322 1.166.52l.595.307zm-22.99-29.88v-.112H12.155V6.775h11.423c-.49.749-.913 1.54-1.262 2.37zm-1.068 4.404h-9.093v-2.258h9.45a14.13 14.13 0 0 0-.357 2.258zm33.81-6.774v2.258h-5.64a14.505 14.505 0 0 0-1.196-2.258zm2.258 0h2.258v6.774h-2.258zm4.516 0h3.387a3.391 3.391 0 0 1 3.387 3.387 3.391 3.391 0 0 1-3.387 3.387h-3.387zm-6.774 6.774h-4.573a14.576 14.576 0 0 0-.349-2.258h4.922zM14.413 45.162H3.123v-11.29h11.29zM9.897 13.05l-6.45-2.418a.502.502 0 0 1 0-.937l6.45-2.419zm54.193 7.274H49.386c.598-1.424.96-2.947 1.083-4.516h14.75a5.652 5.652 0 0 0 5.645-5.645 5.652 5.652 0 0 0-5.645-5.645H46.432c-.132-.137-.252-.281-.39-.414-2.9-2.792-6.72-4.245-10.75-4.092-3.842.148-7.355 1.865-9.914 4.506H10.82L2.655 7.58a2.77 2.77 0 0 0-1.79 2.583 2.77 2.77 0 0 0 1.789 2.583l8.167 3.062h10.432a14.58 14.58 0 0 0 1.093 4.517H7.638v11.29H.864V47.42h15.807V31.614H9.897v-9.032h13.548v-.152c1.138 1.82 2.653 3.41 4.516 4.603v1.194h-2.258v2.258h2.258v2.258h-2.258V35h2.348a7.858 7.858 0 0 0 1.233 3.24l-3.137-2.132-6.112 6.11 2.476 3.643c-.14.308-.27.62-.388.93l-4.323.824v8.641l4.323.823c.117.31.247.622.388.93l-2.476 3.644 6.112 6.11 3.643-2.474c.31.142.62.272.93.389L31.543 70h8.642l.824-4.322c.31-.117.62-.247.93-.39l3.643 2.475 6.111-6.11-2.476-3.643c.141-.309.271-.62.389-.93l4.323-.824v-8.641l-4.323-.823c-.118-.31-.248-.623-.389-.93l2.476-3.644-6.111-6.11-3.138 2.131a7.846 7.846 0 0 0 1.232-3.238h2.35v-2.258h-2.258v-2.258h2.258v-2.258h-2.258v-1.195c1.858-1.19 3.375-2.786 4.516-4.612v.16h13.548v9.033h-6.774V47.42h15.806V31.614H64.09z"/></svg>