<svg xmlns="http://www.w3.org/2000/svg" width="25" height="22"><path data-name="Polygon 3 copy 7" d="M14.263 1.339l10.68 18.227A2.833 2.833 0 0 1 21.706 22H2.6a2.349 2.349 0 0 1-2.352-2.375L10.975 1.317c1.801-2.927 3.225-.067 3.288.022zm.3 5.761h-3.377l.4 7.391h2.578zm-2.909 11.223a1.744 1.744 0 0 0 1.211.394 1.688 1.688 0 0 0 1.191-.394 1.423 1.423 0 0 0 .426-1.1 1.462 1.462 0 0 0-.41-1.105 1.677 1.677 0 0 0-1.207-.394 1.733 1.733 0 0 0-1.227.394 1.439 1.439 0 0 0-.422 1.105 1.4 1.4 0 0 0 .438 1.1z" fill="#c11717" fill-rule="evenodd"/></svg>