<svg xmlns="http://www.w3.org/2000/svg" width="19" height="20"><path data-name="Composite Path" d="M0 19c0 .784.725 1 1.5 1h16.4c.773 0 1.1-.216 1.1-1V6H0v13zM14 8a1.313 1.313 0 0 1 1-1h1a1.313 1.313 0 0 1 1 1v1a1.313 1.313 0 0 1-1 1h-1a1.313 1.313 0 0 1-1-1V8zm0 4a1.313 1.313 0 0 1 1-1h1a1.313 1.313 0 0 1 1 1v1a1.313 1.313 0 0 1-1 1h-1a1.313 1.313 0 0 1-1-1v-1zm0 4a1.313 1.313 0 0 1 1-1h1a1.313 1.313 0 0 1 1 1v1a1.313 1.313 0 0 1-1 1h-1a1.313 1.313 0 0 1-1-1v-1zm-4-8a1.313 1.313 0 0 1 1-1h1a1.313 1.313 0 0 1 1 1v1a1.313 1.313 0 0 1-1 1h-1a1.313 1.313 0 0 1-1-1V8zm0 4a1.313 1.313 0 0 1 1-1h1a1.313 1.313 0 0 1 1 1v1a1.313 1.313 0 0 1-1 1h-1a1.313 1.313 0 0 1-1-1v-1zm0 4a1.313 1.313 0 0 1 1-1h1a1.313 1.313 0 0 1 1 1v1a1.313 1.313 0 0 1-1 1h-1a1.313 1.313 0 0 1-1-1v-1zM6 8a1.313 1.313 0 0 1 1-1h1a1.313 1.313 0 0 1 1 1v1a1.313 1.313 0 0 1-1 1H7a1.313 1.313 0 0 1-1-1V8zm0 4a1.313 1.313 0 0 1 1-1h1a1.313 1.313 0 0 1 1 1v1a1.314 1.314 0 0 1-1 1H7a1.314 1.314 0 0 1-1-1v-1zm0 4a1.314 1.314 0 0 1 1-1h1a1.314 1.314 0 0 1 1 1v1a1.314 1.314 0 0 1-1 1H7a1.314 1.314 0 0 1-1-1v-1zM2 8a1.313 1.313 0 0 1 1-1h1a1.313 1.313 0 0 1 1 1v1a1.313 1.313 0 0 1-1 1H3a1.313 1.313 0 0 1-1-1V8zm0 4a1.313 1.313 0 0 1 1-1h1a1.313 1.313 0 0 1 1 1v1a1.313 1.313 0 0 1-1 1H3a1.313 1.313 0 0 1-1-1v-1zm0 4a1.313 1.313 0 0 1 1-1h1a1.313 1.313 0 0 1 1 1v1a1.313 1.313 0 0 1-1 1H3a1.313 1.313 0 0 1-1-1v-1zM18 2h-1V1a.808.808 0 0 0-1-1c-.789 0-2 .216-2 1v1h-1V1a.808.808 0 0 0-1-1c-.789 0-2 .216-2 1v1H9V1c0-.784-.359-1-1.148-1S6 .216 6 1v1H5l-.006-.581a1.429 1.429 0 0 0-2.858 0L2 2H1c-.79 0-1.009.184-1.009.967v.711A1.539 1.539 0 0 0 1.627 5h16.352C18.769 5 19 4.462 19 3.678v-.711C19 2.184 18.789 2 18 2z" fill="#91b4a5" fill-rule="evenodd"/></svg>