<svg xmlns="http://www.w3.org/2000/svg" width="18" height="19"><path d="M17.836 17.139L8.542.61a1.2 1.2 0 0 0-.724-.573 1.148 1.148 0 0 0-.9.13 1.263 1.263 0 0 0-.424 1.69l9.294 16.529a1.2 1.2 0 0 0 .724.572 1.148 1.148 0 0 0 .9-.13 1.263 1.263 0 0 0 .424-1.689zm-2.907-14.93a1.288 1.288 0 0 0-.675-1.143 1.183 1.183 0 0 0-1.279.114l-1.89 1.5 3.847 6.841-.003-7.312zM6.9 6.014a1.465 1.465 0 0 0-1.455-.891H3.057a1.4 1.4 0 0 0-1.574 1.382v.211A2.875 2.875 0 0 0 0 9.365a2.874 2.874 0 0 0 1.479 2.648v.279a1.853 1.853 0 0 0 1.573 1.894h2.397a1.693 1.693 0 0 0 1.395-1.023l6.133 4.718a1.168 1.168 0 0 0 1.214.112L7.285 5.711z" fill="#91b4a5" fill-rule="evenodd"/></svg>