<svg xmlns="http://www.w3.org/2000/svg" width="18" height="21"><path d="M12.685 17.234a2.376 2.376 0 0 1-1.2 3.116 2.319 2.319 0 0 1-3.073-1.216 2.37 2.37 0 0 1-.191-.981l3.88-1.725a2.317 2.317 0 0 1 .584.806zM.645 10.841a6.692 6.692 0 0 1 1.1-7.2 2.407 2.407 0 0 1-.187-.322A2.374 2.374 0 0 1 2.756.209a2.319 2.319 0 0 1 3.072 1.215 2.088 2.088 0 0 1 .107.347 6.846 6.846 0 0 1 6.138 4.039s1.873 4.361 3.932 4.709a1.722 1.722 0 0 1 1.5.849c.317.772-.337 1.8-1.472 2.3L3.722 19.046c-1.136.5-2.39.3-2.659-.494a1.766 1.766 0 0 1 .372-1.567c1.165-1.809-.79-6.144-.79-6.144z" fill="#91b4a5" fill-rule="evenodd"/></svg>