<svg xmlns="http://www.w3.org/2000/svg" width="19" height="16"><path data-name="Composite Path" d="M19 14.333A1.7 1.7 0 0 1 17.273 16H1.727A1.7 1.7 0 0 1 0 14.333V4c0-1.632 2-2 2-2h10a2.085 2.085 0 0 1 1.818-2h1.727C16.5 0 17 1.079 17 2a2.259 2.259 0 0 1 2 2v10.333zM11.227 5a4.244 4.244 0 0 0-4.318 4.166 4.244 4.244 0 0 0 4.318 4.167 4.244 4.244 0 0 0 4.318-4.167A4.244 4.244 0 0 0 11.227 5zm0 6.667a2.547 2.547 0 0 1-2.591-2.5 2.593 2.593 0 0 1 5.182 0 2.548 2.548 0 0 1-2.591 2.499zM2 5h2V3H2v2z" fill="#91b4a5" fill-rule="evenodd"/></svg>