<svg xmlns="http://www.w3.org/2000/svg" width="19" height="15"><path d="M5.895 6.836a.428.428 0 0 0 .23-.375V5.088h6.737a2.456 2.456 0 0 1 2.45 2.458c0 .07-.015.137-.021.205l2.777 1.6a5.52 5.52 0 0 0-5.206-7.333H6.124v-1.6a.425.425 0 0 0-.229-.376.472.472 0 0 0-.457.007L.211 3.071a.42.42 0 0 0 0 .736l5.228 3.021a.469.469 0 0 0 .456.008zm12.874 4.334l-5.227-3.01a.465.465 0 0 0-.453-.008.421.421 0 0 0-.227.374V10H6.124a2.456 2.456 0 0 1-2.45-2.458 2.424 2.424 0 0 1 .03-.3L.949 5.658a5.52 5.52 0 0 0 5.176 7.417h6.737v1.471a.421.421 0 0 0 .227.374.473.473 0 0 0 .456-.008l5.225-3.01a.418.418 0 0 0-.002-.731z" fill="#91b4a5" fill-rule="evenodd"/></svg>