<svg xmlns="http://www.w3.org/2000/svg" width="21" height="22"><path data-name="Composite Path" d="M11.931 2.788a6.935 6.935 0 0 0-9.9 0 7.168 7.168 0 0 0 0 10.039 6.934 6.934 0 0 0 8.79.918l2.509 2.544a1.433 1.433 0 0 0 0 2.007l2.47 2.51a2.773 2.773 0 0 0 3.96 0 2.867 2.867 0 0 0 0-4.014l-2.476-2.51a1.387 1.387 0 0 0-1.98 0l-2.5-2.536a7.174 7.174 0 0 0-.873-8.958zm-8.418 8.534a5.023 5.023 0 0 1 0-7.028 4.86 4.86 0 0 1 6.932 0 5.024 5.024 0 0 1 0 7.029 4.86 4.86 0 0 1-6.932-.001z" fill="#91b4a5" fill-rule="evenodd"/></svg>