<svg xmlns="http://www.w3.org/2000/svg" width="18" height="19"><path data-name="Composite Path copy 3" d="M11.931 2.788a6.935 6.935 0 0 0-9.9 0 7.168 7.168 0 0 0 0 10.039 6.934 6.934 0 0 0 8.79.918A1.008 1.008 0 0 0 11 15l2 2c1.136 1.135 2.774 1.795 3.763.806 1.1-1.1.33-2.7-.763-3.806l-2-2a1.089 1.089 0 0 0-1.2-.253 7.174 7.174 0 0 0-.869-8.959zm-8.418 8.534a5.023 5.023 0 0 1 0-7.028 4.86 4.86 0 0 1 6.932 0 5.025 5.025 0 0 1 0 7.029 4.861 4.861 0 0 1-6.932-.001z" fill="#91b4a5" fill-rule="evenodd"/></svg>