<svg xmlns="http://www.w3.org/2000/svg" width="19" height="15"><path d="M13.451 4.569v1.548a.487.487 0 0 0 .274.355.536.536 0 0 0 .475-.007l4.622-2.858a.405.405 0 0 0 .188-.348.417.417 0 0 0-.2-.348L14.167.053a.463.463 0 0 0-.44-.008.489.489 0 0 0-.276.355v1.565h-.824a2.38 2.38 0 0 0-1.688.712l-6.973 7.1H1.24a1.26 1.26 0 0 0-1.25 1.27v.064a1.26 1.26 0 0 0 1.251 1.27h2.8a2.383 2.383 0 0 0 1.689-.712l6.973-7.1h.75zM1.24 5.22h2.725l1.558 1.587 1.81-1.843-1.605-1.636a2.382 2.382 0 0 0-1.689-.712H1.24A1.245 1.245 0 0 0-.01 3.868v.064A1.276 1.276 0 0 0 1.24 5.22zM14.2 8.514a.536.536 0 0 0-.475-.007.489.489 0 0 0-.274.355v1.566H12.7L10.5 8.19l-1.81 1.843 2.246 2.287a2.38 2.38 0 0 0 1.688.712h.824v1.546a.487.487 0 0 0 .275.354.462.462 0 0 0 .441-.007l4.641-2.859a.415.415 0 0 0 .2-.347.4.4 0 0 0-.188-.348z" fill="#91b4a5" fill-rule="evenodd"/></svg>