<svg xmlns="http://www.w3.org/2000/svg" width="2787" height="1225" viewBox="0 0 2787 1225"><defs><linearGradient id="qzqia" x1="984.05" x2="2256.52" y1="-577.47" y2="695" gradientUnits="userSpaceOnUse"><stop offset="0" stop-color="#cce0f4"/><stop offset=".05" stop-color="#c2dbf1"/><stop offset=".13" stop-color="#a9d1eb"/><stop offset=".24" stop-color="#7fbfe0"/><stop offset=".37" stop-color="#45a6d2"/><stop offset=".5" stop-color="#0089c1"/><stop offset=".99" stop-color="#004c87"/></linearGradient><linearGradient id="qzqib" x1="1802.82" x2="530.35" y1="-577.47" y2="695" gradientUnits="userSpaceOnUse"><stop offset="0" stop-color="#cce0f4"/><stop offset=".05" stop-color="#c2dbf1"/><stop offset=".13" stop-color="#a9d1eb"/><stop offset=".24" stop-color="#7fbfe0"/><stop offset=".37" stop-color="#45a6d2"/><stop offset=".5" stop-color="#0089c1"/><stop offset=".99" stop-color="#004c87"/></linearGradient></defs><g><g opacity=".2"><g opacity=".2"><path fill="url(#qzqia)" d="M1678.346 682.384L1064.79 68.822A232.58 232.58 0 0 0 900.33.7H405.879l1190.243 1190.237c45.41 45.416 119.045 45.416 164.454 0L2752.3 199.222C2825.559 125.962 2773.674.7 2670.069.7h-310.04z"/></g><g opacity=".2"><path fill="url(#qzqib)" d="M1108.529 682.384L426.846.701h-310.04C13.201.7-38.678 125.96 34.576 199.22l991.723 991.717c45.416 45.416 119.044 45.416 164.46 0L2380.997.701h-494.45a232.554 232.554 0 0 0-164.455 68.12z"/></g></g></g></svg>