<svg xmlns="http://www.w3.org/2000/svg" width="70" height="70" viewBox="0 0 70 70"><g><g><g><path fill="#fff" d="M15.167 67.667A8.176 8.176 0 0 1 7 59.5v-1.167h49V59.5c.002.385.024.769.066 1.151.01.102.03.2.045.3.038.283.085.564.147.84.02.097.048.193.072.29a10.605 10.605 0 0 0 .33 1.064c.105.289.225.571.357.85.028.057.054.117.082.17.146.295.307.582.482.861.023.038.044.076.067.117.19.298.396.586.615.863l.038.05a10.285 10.285 0 0 0 1.598 1.613zM68.833 0h-52.5c-.644 0-1.166.522-1.166 1.167v17.5H17.5V2.333h50.167V66.5a1.148 1.148 0 0 1-1.075 1.167c-.1 0-.2-.009-.3-.011-.207-.006-.414-.01-.617-.031-.017 0-.034 0-.051-.007a8.178 8.178 0 0 1-7.24-7.234c0-.016-.006-.034-.009-.05a8.133 8.133 0 0 1-.042-.834v-2.333c0-.645-.522-1.167-1.166-1.167H17.5V35h-2.333v21H5.833c-.644 0-1.166.522-1.166 1.167V59.5c.006 5.796 4.703 10.493 10.5 10.5h51.45A3.474 3.474 0 0 0 70 66.5V1.167C70 .522 69.478 0 68.833 0z"/></g><g><path fill="#fff" d="M2.333 26.833a3.5 3.5 0 0 1 3.5-3.5H7v7H5.833a3.5 3.5 0 0 1-3.5-3.5zm7-3.5H35.84l-.583 2.334h-23.59V28h23.59l.583 2.333H9.333zm28.866.182l3.318 3.318-3.318 3.318-.83-3.318zm.301 9.152c.31 0 .606-.123.825-.342l4.666-4.667a1.167 1.167 0 0 0 0-1.65l-4.666-4.666A1.166 1.166 0 0 0 38.5 21H5.833a5.833 5.833 0 0 0 0 11.667z"/></g><g><path fill="#fff" d="M60.667 16.816v3.017h-2.334v2.334h2.334V24.5h-2.334v2.333h2.334v2.334h-2.334V31.5h2.334v2.333h-2.334v2.334h2.334V38.5h-2.334v2.333h2.334v2.334h-2.334V45.5h2.334v2.333h-2.334V45.5H56v2.333h-2.333V45.5h-2.334v2.333H49V45.5h-2.333v2.333h-2.334V45.5H42v2.333h-2.333V45.5h-2.334v2.333H35V45.5h-2.333v2.333H29.65zm-33.834 33.35h35c.645 0 1.167-.522 1.167-1.166V14a1.167 1.167 0 0 0-1.992-.825l-35 35a1.167 1.167 0 0 0 .825 1.992z"/></g><g><path fill="#fff" d="M53.667 33.717v7.116H46.55zm-9.935 9.45h11.101c.645 0 1.167-.523 1.167-1.167V30.9a1.167 1.167 0 0 0-1.992-.826l-11.1 11.101a1.167 1.167 0 0 0 .824 1.992z"/></g><g><path fill="#fff" d="M30.333 9.333V7h23.334v2.333z"/></g><g><path fill="#fff" d="M26.833 14v-2.333h30.334V14z"/></g><g><path fill="#fff" d="M19.833 38.5v-2.333h7V38.5z"/></g><g><path fill="#fff" d="M19.833 43.167v-2.334H24.5v2.334z"/></g></g></g></svg>