<svg xmlns="http://www.w3.org/2000/svg" width="20" height="21" viewBox="0 0 20 21"><g><g><g><path fill="#fff" d="M17.341 17.17c-.004 0-.004.005 0 0-.164.178-.333.338-.515.515-.275.262-.554.536-.816.845-.427.455-.93.67-1.59.67-.063 0-.13 0-.194-.004-1.256-.08-2.422-.57-3.297-.987a18.774 18.774 0 0 1-6.24-4.88C3.248 11.594 2.284 9.99 1.646 8.268c-.394-1.051-.537-1.87-.474-2.643.042-.493.233-.903.584-1.253l1.441-1.44c.207-.194.427-.3.643-.3.266 0 .481.161.617.296l.012.013c.258.24.503.49.761.755.131.135.267.27.402.41l1.154 1.152c.448.448.448.861 0 1.309-.123.122-.241.245-.364.363-.355.363-.693.7-1.06 1.03-.01.008-.018.012-.022.02-.363.364-.296.718-.22.96l.013.037c.3.726.723 1.41 1.366 2.225l.004.004c1.166 1.435 2.397 2.554 3.754 3.41.173.11.35.199.52.283.152.076.295.148.418.224.017.008.034.021.05.03a.917.917 0 0 0 .42.105c.35 0 .57-.22.642-.291l1.446-1.444c.143-.143.372-.316.638-.316.262 0 .478.164.609.308l.008.008 2.33 2.326c.435.43.435.874.004 1.321zm-1.513-4.445c-.41-.426-.905-.654-1.429-.654-.52 0-1.018.224-1.445.65l-1.336 1.33c-.11-.06-.22-.114-.326-.169-.152-.076-.296-.148-.418-.224-1.252-.793-2.389-1.827-3.48-3.166-.528-.666-.883-1.228-1.14-1.798.346-.316.667-.646.98-.962l.355-.359c.888-.886.888-2.035 0-2.921L6.435 3.3c-.13-.131-.266-.266-.393-.401-.254-.262-.52-.532-.795-.786-.41-.405-.9-.62-1.416-.62-.516 0-1.014.215-1.437.62l-.009.009L.948 3.57a3.086 3.086 0 0 0-.917 1.963c-.102 1.232.262 2.38.54 3.132.686 1.844 1.709 3.554 3.235 5.386a19.889 19.889 0 0 0 6.624 5.18c.972.46 2.27 1.004 3.72 1.097.089.004.182.008.266.008.977 0 1.797-.35 2.44-1.047.004-.008.012-.012.016-.02.22-.267.474-.507.74-.765.182-.173.368-.354.55-.544.418-.435.638-.942.638-1.46 0-.524-.224-1.027-.651-1.449z"/></g><g><path fill="#fff" d="M10.823 5.094a5.363 5.363 0 0 1 2.917 1.51 5.378 5.378 0 0 1 1.513 2.913.567.567 0 0 0 .562.473c.034 0 .064-.004.098-.008a.57.57 0 0 0 .469-.659 6.508 6.508 0 0 0-1.83-3.524 6.523 6.523 0 0 0-3.53-1.828.574.574 0 0 0-.66.464.564.564 0 0 0 .461.659z"/></g><g><path fill="#fff" d="M20.005 9.159a10.706 10.706 0 0 0-3.014-5.805 10.732 10.732 0 0 0-5.813-3.01.568.568 0 1 0-.186 1.124 9.61 9.61 0 0 1 5.195 2.689 9.558 9.558 0 0 1 2.693 5.187.567.567 0 0 0 .562.473c.034 0 .064-.004.098-.008a.56.56 0 0 0 .465-.65z"/></g></g></g></svg>