<svg xmlns="http://www.w3.org/2000/svg" width="70" height="70" viewBox="0 0 70 70"><g><g><g><path fill="#fff" d="M50.806 53.065a5.652 5.652 0 0 1-5.645-5.646 5.6 5.6 0 0 1 1.048-3.266l-1.84-1.31a7.853 7.853 0 0 0-1.466 4.576c0 4.357 3.547 7.904 7.903 7.904a7.852 7.852 0 0 0 4.577-1.467l-1.31-1.84a5.601 5.601 0 0 1-3.267 1.048z"/></g><g><path fill="#fff" d="M67.742 67.742H2.258V27.097H46.29v8.771c-.406.16-.806.333-1.193.534l-2.42-1.612-4.501 4.501 1.614 2.42c-.326.627-.597 1.28-.811 1.954l-2.85.572v6.366l2.85.572c.213.674.485 1.328.81 1.954l-1.613 2.42 4.501 4.5 2.42-1.613c.627.326 1.28.597 1.954.811l.573 2.85h6.366l.572-2.85a12.238 12.238 0 0 0 1.954-.81l2.42 1.613 4.501-4.501-1.614-2.42c.326-.627.597-1.28.811-1.954l2.85-.573v-6.366l-2.85-.572a12.238 12.238 0 0 0-.81-1.954l1.613-2.42-4.501-4.501-2.42 1.612a12.157 12.157 0 0 0-1.193-.534V19.194a2.26 2.26 0 0 1 2.258 2.258v7.903a3.392 3.392 0 0 0 3.387 3.387h2.258v-2.258h-2.258a1.13 1.13 0 0 1-1.13-1.13v-2.257h7.904zM4.516 18.676c0-1.108.794-2.045 1.887-2.227l4.887-.815v-2.2a5.65 5.65 0 0 0 2.258 0v2.2l4.888.814a2.253 2.253 0 0 1 1.887 2.228v6.163H4.516zm4.516-13.03a3.392 3.392 0 0 1 3.387-3.388 3.392 3.392 0 0 1 3.387 3.387v2.258a3.392 3.392 0 0 1-3.387 3.387 3.392 3.392 0 0 1-3.387-3.387zm16.936 13.03c0-1.108.794-2.045 1.886-2.227l4.888-.815v-2.2a5.65 5.65 0 0 0 2.258 0v2.2l4.888.814a2.253 2.253 0 0 1 1.886 2.228v6.163H25.968zm4.516-13.03a3.392 3.392 0 0 1 3.387-3.388 3.392 3.392 0 0 1 3.387 3.387v2.258a3.392 3.392 0 0 1-3.387 3.387 3.392 3.392 0 0 1-3.387-3.387zm22.58 33.87h-4.516V19.194h4.517zm-4.516 2.258h4.517v1.882l-2.259 3.01-2.258-3.01zm10.985.461c.495.832.87 1.734 1.11 2.68l.176.69 2.407.48v2.667l-2.407.48-.175.69a10.121 10.121 0 0 1-1.111 2.68l-.364.611 1.362 2.045-1.885 1.884-2.044-1.361-.611.364c-.832.495-1.734.87-2.68 1.11l-.69.176-.481 2.408h-2.666l-.48-2.407-.69-.176a10.122 10.122 0 0 1-2.68-1.11l-.612-.364-2.044 1.361-1.885-1.884 1.362-2.045-.364-.61a10.085 10.085 0 0 1-1.11-2.68l-.176-.69-2.408-.481v-2.666l2.407-.48.175-.69c.242-.947.616-1.849 1.111-2.68l.363-.612-1.36-2.044 1.884-1.885 2.044 1.362.611-.364c.215-.127.445-.223.668-.335v6.05l4.516 6.023 4.517-6.023v-.366a5.654 5.654 0 0 1 1.129 3.377 5.601 5.601 0 0 1-1.048 3.267l1.84 1.31a7.858 7.858 0 0 0 1.466-4.578c0-2.584-1.289-4.997-3.387-6.467v-2.594c.223.112.453.208.668.335l.61.363 2.045-1.36 1.885 1.884-1.362 2.044zm-6.468-27.558v2.258h-4.517v-2.258zm-3.388-9.032h2.258v2.258h-2.258zM59.84 24.84v-3.387a4.52 4.52 0 0 0-4.516-4.517V12.42h-3.388v-2.258h2.259V3.387h-6.775v6.774h2.258v2.258H46.29v12.42h-2.258v-6.163a4.502 4.502 0 0 0-3.774-4.454l-3-.501v-1.302h-.035c1.383-1.03 2.293-2.663 2.293-4.516V5.645A5.652 5.652 0 0 0 33.871 0a5.652 5.652 0 0 0-5.645 5.645v2.258c0 1.853.91 3.487 2.293 4.516h-.035v1.302l-3 .5a4.5 4.5 0 0 0-3.774 4.455v6.163h-1.13v-6.163a4.502 4.502 0 0 0-3.773-4.454l-3-.501v-1.302h-.035c1.382-1.03 2.293-2.663 2.293-4.516V5.645A5.652 5.652 0 0 0 12.419 0a5.652 5.652 0 0 0-5.645 5.645v2.258c0 1.853.91 3.487 2.293 4.516h-.035v1.302l-3 .5a4.5 4.5 0 0 0-3.774 4.455v6.163H0V70h70V24.839z"/></g><g><path fill="#fff" d="M33.871 30.484h2.258v2.258h-2.258z"/></g><g><path fill="#fff" d="M29.355 30.484h2.258v2.258h-2.258z"/></g><g><path fill="#fff" d="M24.839 30.484h2.258v2.258h-2.258z"/></g><g><path fill="#fff" d="M27.163 46.424l2.89-5.779h6.076v-2.258h-7.472l-1.627 3.254L23.236 35H4.516v2.258h17.41z"/></g><g><path fill="#fff" d="M4.516 39.516h16.936v2.258H4.516z"/></g><g><path fill="#fff" d="M4.516 44.032h16.936v2.258H4.516z"/></g><g><path fill="#fff" d="M30.484 57.58h-2.258v5.646h-2.258v-9.032H23.71v9.032h-2.258V48.548h-2.258v14.678h-2.258v-9.032h-2.259v9.032H12.42V57.58h-2.258v5.645H7.903v2.258h24.839v-2.258h-2.258z"/></g><g><path fill="#fff" d="M63.226 63.226h2.258v2.258h-2.258z"/></g><g><path fill="#fff" d="M58.71 63.226h2.258v2.258H58.71z"/></g><g><path fill="#fff" d="M54.194 63.226h2.258v2.258h-2.258z"/></g></g></g></svg>