<?xml version="1.0" encoding="UTF-8"?><!DOCTYPE svg PUBLIC "-//W3C//DTD SVG 1.1//EN" "http://www.w3.org/Graphics/SVG/1.1/DTD/svg11.dtd"><svg xmlns="http://www.w3.org/2000/svg"><defs><linearGradient id="a" x1="984.05" x2="2256.52" y1="-577.47" y2="695" gradientUnits="userSpaceOnUse"><stop offset="0" stop-color="#cce0f4"/><stop offset=".05" stop-color="#c2dbf1"/><stop offset=".13" stop-color="#a9d1eb"/><stop offset=".24" stop-color="#7fbfe0"/><stop offset=".37" stop-color="#45a6d2"/><stop offset=".5" stop-color="#0089c1"/><stop offset=".99" stop-color="#004c87"/></linearGradient><linearGradient id="b" x1="1802.82" x2="530.35" y1="-577.47" y2="695" gradientUnits="userSpaceOnUse"><stop offset="0" stop-color="#cce0f4"/><stop offset=".05" stop-color="#c2dbf1"/><stop offset=".13" stop-color="#a9d1eb"/><stop offset=".24" stop-color="#7fbfe0"/><stop offset=".37" stop-color="#45a6d2"/><stop offset=".5" stop-color="#0089c1"/><stop offset=".99" stop-color="#004c87"/></linearGradient></defs><symbol id="icon-arrow-big" viewBox="0 0 2787 1225"><g opacity=".2"><path d="M1678.346 682.384L1064.79 68.822A232.58 232.58 0 0 0 900.33.7H405.879l1190.243 1190.237c45.41 45.416 119.045 45.416 164.454 0L2752.3 199.222C2825.559 125.962 2773.674.7 2670.069.7h-310.04z" opacity=".2"/><path d="M1108.529 682.384L426.846.701h-310.04C13.201.7-38.678 125.96 34.576 199.22l991.723 991.717c45.416 45.416 119.044 45.416 164.46 0L2380.997.701h-494.45a232.554 232.554 0 0 0-164.455 68.12z" opacity=".2"/></g></symbol><symbol id="icon-arrow-slide" viewBox="0 0 33 45"><path stroke-miterlimit="50" stroke-width="15" d="M5.291 39.47l17.14-17.138L5.29 5.192"/></symbol><symbol id="icon-burger" viewBox="-14 -97 454.66786 454"><path d="M413.773 229.36H12.477C5.586 229.36 0 234.95 0 241.835c0 6.894 5.586 12.476 12.477 12.476h401.296c6.891 0 12.477-5.582 12.477-12.476 0-6.887-5.586-12.477-12.477-12.477zm0 0M413.773 112.074H12.477C5.586 112.074 0 117.668 0 124.554c0 6.891 5.586 12.477 12.477 12.477h401.296c6.891 0 12.477-5.586 12.477-12.476 0-6.887-5.586-12.48-12.477-12.48zm0 0M413.773-5.207H12.477C5.586-5.207 0 .383 0 7.27c0 6.89 5.586 12.476 12.477 12.476h401.296c6.891 0 12.477-5.586 12.477-12.476 0-6.887-5.586-12.477-12.477-12.477zm0 0"/></symbol><symbol id="icon-fb" viewBox="0 0 14 14"><path d="M14 2.333C14 1.107 12.893 0 11.667 0H2.333C1.107 0 0 1.107 0 2.333v9.334C0 12.893 1.107 14 2.333 14H7V8.711H5.289V6.378H7v-.91c0-1.567 1.177-2.98 2.625-2.98h1.886v2.334H9.625c-.206 0-.447.25-.447.626v.93h2.333V8.71H9.178V14h2.489C12.893 14 14 12.893 14 11.667z"/></symbol><symbol id="icon-func-tech" viewBox="0 0 70 70"><path d="M15.167 67.667A8.176 8.176 0 0 1 7 59.5v-1.167h49V59.5c.002.385.024.769.066 1.151.01.102.03.2.045.3.038.283.085.564.147.84.02.097.048.193.072.29a10.605 10.605 0 0 0 .33 1.064c.105.289.225.571.357.85.028.057.054.117.082.17.146.295.307.582.482.861.023.038.044.076.067.117.19.298.396.586.615.863l.038.05a10.285 10.285 0 0 0 1.598 1.613zM68.833 0h-52.5c-.644 0-1.166.522-1.166 1.167v17.5H17.5V2.333h50.167V66.5a1.148 1.148 0 0 1-1.075 1.167c-.1 0-.2-.009-.3-.011-.207-.006-.414-.01-.617-.031-.017 0-.034 0-.051-.007a8.178 8.178 0 0 1-7.24-7.234c0-.016-.006-.034-.009-.05a8.133 8.133 0 0 1-.042-.834v-2.333c0-.645-.522-1.167-1.166-1.167H17.5V35h-2.333v21H5.833c-.644 0-1.166.522-1.166 1.167V59.5c.006 5.796 4.703 10.493 10.5 10.5h51.45A3.474 3.474 0 0 0 70 66.5V1.167C70 .522 69.478 0 68.833 0z"/><path d="M2.333 26.833a3.5 3.5 0 0 1 3.5-3.5H7v7H5.833a3.5 3.5 0 0 1-3.5-3.5zm7-3.5H35.84l-.583 2.334h-23.59V28h23.59l.583 2.333H9.333zm28.866.182l3.318 3.318-3.318 3.318-.83-3.318zm.301 9.152c.31 0 .606-.123.825-.342l4.666-4.667a1.167 1.167 0 0 0 0-1.65l-4.666-4.666A1.166 1.166 0 0 0 38.5 21H5.833a5.833 5.833 0 0 0 0 11.667zM60.667 16.816v3.017h-2.334v2.334h2.334V24.5h-2.334v2.333h2.334v2.334h-2.334V31.5h2.334v2.333h-2.334v2.334h2.334V38.5h-2.334v2.333h2.334v2.334h-2.334V45.5h2.334v2.333h-2.334V45.5H56v2.333h-2.333V45.5h-2.334v2.333H49V45.5h-2.333v2.333h-2.334V45.5H42v2.333h-2.333V45.5h-2.334v2.333H35V45.5h-2.333v2.333H29.65zm-33.834 33.35h35c.645 0 1.167-.522 1.167-1.166V14a1.167 1.167 0 0 0-1.992-.825l-35 35a1.167 1.167 0 0 0 .825 1.992z"/><path d="M53.667 33.717v7.116H46.55zm-9.935 9.45h11.101c.645 0 1.167-.523 1.167-1.167V30.9a1.167 1.167 0 0 0-1.992-.826l-11.1 11.101a1.167 1.167 0 0 0 .824 1.992zM30.333 9.333V7h23.334v2.333zM26.833 14v-2.333h30.334V14zM19.833 38.5v-2.333h7V38.5zM19.833 43.167v-2.334H24.5v2.334z"/></symbol><symbol id="icon-insta" viewBox="0 0 14 14"><path d="M12.758 10.137a2.624 2.624 0 0 1-2.621 2.62H3.863a2.624 2.624 0 0 1-2.62-2.62V3.863a2.624 2.624 0 0 1 2.62-2.62h6.273a2.624 2.624 0 0 1 2.622 2.62v6.274zM10.136 0H3.863A3.868 3.868 0 0 0 0 3.863v6.274A3.868 3.868 0 0 0 3.863 14h6.273A3.868 3.868 0 0 0 14 10.137V3.862A3.868 3.868 0 0 0 10.136 0z"/><path d="M7 9.365A2.368 2.368 0 0 1 4.635 7 2.368 2.368 0 0 1 7 4.635 2.368 2.368 0 0 1 9.365 7 2.368 2.368 0 0 1 7 9.365zm0-5.972A3.612 3.612 0 0 0 3.393 7 3.611 3.611 0 0 0 7 10.607 3.611 3.611 0 0 0 10.607 7 3.611 3.611 0 0 0 7 3.393zM10.759 2.34a.914.914 0 0 0-.911.91c0 .24.098.475.267.645a.918.918 0 0 0 .644.266.92.92 0 0 0 .644-.266.915.915 0 0 0 0-1.289.915.915 0 0 0-.644-.267z"/></symbol><symbol id="icon-logo" viewBox="0 0 178 25"><path d="M33.746 14.663l-.732-.724.428-.424-.124-.122.303-.3.124.122.124-.123.304.3-.124.123.427.424zM10.71 1.249h-.925V.05h.925zm3.868 0h-1.934V.05h1.934zm3.87 0h-1.935V.05h1.934zm3.033 1.264l-.125-.124a3.92 3.92 0 0 0-1.256-.836l.468-1.104c.617.256 1.17.625 1.643 1.093l.125.124zm2.736 2.71l-1.368-1.355.855-.847 1.367 1.355zm2.735 2.71l-1.367-1.355.854-.847 1.368 1.355zm2.736 2.71L28.32 9.288l.855-.847 1.368 1.355zm2.735 2.71l-1.368-1.355.855-.847 1.368 1.356zM8.814 1.374L7.479.05h1.888v.177l.302.299-.302.299v.423H8.94z"/><path d="M51.234 1.249H49.3V.05h1.934zm3.137.606a1.621 1.621 0 0 0-1.224-.605L53.19.053c.848.03 1.603.405 2.126 1.055zm-8.043.342l-.854-.847 1.31-1.299h.582v.926l.096.096-.096.096v.08h-.08zm-35.542 1.13L9.418 1.972l.854-.847L11.64 2.48zm32.807 1.58l-.855-.847 1.368-1.355.855.847zm11.135.38l-.855-.848.382-.378c.255-.252.412-.548.47-.88l1.191.2a2.814 2.814 0 0 1-.806 1.527zm-41.207.75l-1.368-1.355.855-.847 1.368 1.355zm27.336 1.58l-.854-.847 1.367-1.355.855.847zm11.136.379l-.855-.847 1.368-1.355.854.847zm-35.737.751l-1.368-1.355.855-.846L17.111 7.9zm21.866 1.58l-.855-.847 1.368-1.355.855.847zm11.135.379l-.855-.847 1.368-1.355.855.847zm-30.265.751l-1.368-1.355.855-.846 1.368 1.355zm16.394 1.58l-.855-.847 1.368-1.355.855.847zm11.135.38l-.854-.847 1.368-1.356.854.847zm-24.794.75l-1.367-1.355.854-.846 1.368 1.355zm22.059 1.96l-.855-.847 1.368-1.356.855.847zm-19.323.75l-1.368-1.355.855-.846 1.368 1.355zm16.588 1.96l-.855-.847 1.368-1.355.854.846zm-13.852.75l-1.368-1.354.854-.847 1.368 1.355zm11.116 1.96l-.855-.847 1.368-1.355.855.847zm-8.381.75l-1.368-1.354.855-.847 1.368 1.355zm5.58 1.995zm-.746-.942c.053-.042.105-.087.154-.135l1.17-1.16.855.847-1.171 1.16c-.083.083-.172.16-.263.23zm-1.565 1.494a2.865 2.865 0 0 1-1.488-.782l-.413-.41.854-.846.414.41c.236.234.534.39.86.452z"/><g><path d="M8.673 1.198l13.54 13.414 12.39-12.274a3.924 3.924 0 0 1 2.778-1.14h8.18L23.39 23.164a1.66 1.66 0 0 1-1.176.483 1.66 1.66 0 0 1-1.175-.483L1.703 4.01a1.613 1.613 0 0 1-.36-1.795 1.64 1.64 0 0 1 1.536-1.017zm13.54 23.646c.767 0 1.488-.296 2.03-.833L48.48 0H37.381a5.13 5.13 0 0 0-3.633 1.491L22.213 12.918 9.173 0H2.88C1.695 0 .679.673.226 1.756a2.782 2.782 0 0 0 .623 3.1l19.334 19.155a2.865 2.865 0 0 0 2.03.833z"/></g><g><path d="M97.524 13.875c.077.077.115.186.115.327v.288c0 .128-.042.23-.125.307a.45.45 0 0 1-.317.116h-7.644a.415.415 0 0 1-.307-.116.416.416 0 0 1-.115-.307V1.91a.45.45 0 0 1 .115-.317.399.399 0 0 1 .307-.125h7.49c.141 0 .25.039.327.116a.442.442 0 0 1 .115.326v.288c0 .128-.041.23-.124.308a.45.45 0 0 1-.317.115H90.34v4.897h6.281c.14 0 .25.039.327.116a.442.442 0 0 1 .115.326v.288c0 .128-.042.23-.125.307a.45.45 0 0 1-.317.116h-6.28v5.09h6.856c.14 0 .25.038.327.114zM85.404 1.584a.442.442 0 0 1 .116.326v12.58c0 .128-.042.23-.125.307a.45.45 0 0 1-.317.116h-.346a.415.415 0 0 1-.307-.116.415.415 0 0 1-.115-.307V8.67h-7.414v5.82c0 .128-.042.23-.125.307a.449.449 0 0 1-.317.116h-.346a.415.415 0 0 1-.307-.116.415.415 0 0 1-.115-.307V1.91a.45.45 0 0 1 .115-.317.399.399 0 0 1 .307-.125h.346c.14 0 .25.039.327.116a.441.441 0 0 1 .115.326v5.608h7.414V1.91a.45.45 0 0 1 .115-.317.398.398 0 0 1 .307-.125h.346c.14 0 .25.039.326.116zm-12.157 0c.077.077.115.185.115.326v.288c0 .128-.042.23-.125.308a.45.45 0 0 1-.317.115h-3.784V14.49c0 .128-.041.23-.124.307a.45.45 0 0 1-.317.116h-.346a.415.415 0 0 1-.307-.116.415.415 0 0 1-.116-.307V2.62h-3.803a.416.416 0 0 1-.307-.114.416.416 0 0 1-.115-.308V1.91a.45.45 0 0 1 .115-.317.4.4 0 0 1 .307-.125h8.797c.14 0 .25.039.327.116zM110.603 1.987c.039-.18.112-.31.221-.394a.6.6 0 0 1 .375-.125h2.516c.115 0 .214.042.297.125a.407.407 0 0 1 .125.298l-.019.153-2.477 12.139c-.026.18-.132.345-.318.5a.98.98 0 0 1-.643.23h-1.594a.894.894 0 0 1-.615-.221 1.167 1.167 0 0 1-.345-.509l-1.44-4.34-1.441 4.34a1.17 1.17 0 0 1-.346.509.895.895 0 0 1-.615.22h-1.594a.98.98 0 0 1-.643-.23c-.186-.154-.292-.32-.317-.499L99.252 2.044l-.019-.153c0-.115.041-.214.125-.298a.406.406 0 0 1 .297-.125h2.516a.6.6 0 0 1 .375.125c.109.084.183.215.221.394l1.23 6.492 1.132-3.477c.128-.37.346-.557.653-.557h1.806c.307 0 .525.186.653.557l1.133 3.477zM119.573 11.84h6.069a.5.5 0 0 1 .365.153.5.5 0 0 1 .154.365v2.036a.499.499 0 0 1-.154.365.498.498 0 0 1-.365.154h-9.104a.497.497 0 0 1-.365-.154.498.498 0 0 1-.154-.365V1.987c0-.14.052-.262.154-.365a.498.498 0 0 1 .365-.154h8.95a.5.5 0 0 1 .365.154.498.498 0 0 1 .154.365v2.036a.497.497 0 0 1-.154.365.499.499 0 0 1-.365.153h-5.915v2.075h5.493a.5.5 0 0 1 .365.153.5.5 0 0 1 .154.365V9.17a.498.498 0 0 1-.154.365.498.498 0 0 1-.365.154h-5.493zM138.884 5.357a.385.385 0 0 1-.278.125h-2.516c-.18 0-.32-.022-.423-.067a1.353 1.353 0 0 1-.345-.24 23.174 23.174 0 0 1-.25-.26c-.14-.146-.362-.278-.663-.393a2.92 2.92 0 0 0-1.046-.173c-.55 0-1.002.074-1.354.221-.353.147-.529.4-.529.759 0 .256.109.458.327.605.217.147.554.278 1.008.393.455.116 1.246.289 2.372.519 1.447.295 2.51.756 3.189 1.383.678.627 1.018 1.524 1.018 2.689 0 .845-.254 1.584-.76 2.218-.505.634-1.21 1.12-2.112 1.46-.903.339-1.924.509-3.063.509-1.102 0-2.1-.192-2.997-.577-.896-.384-1.6-.883-2.112-1.498-.513-.614-.781-1.248-.807-1.901 0-.115.041-.214.125-.298a.385.385 0 0 1 .278-.125h2.516c.282 0 .525.09.73.27.039.038.141.15.307.335.167.186.42.353.76.5.339.147.739.22 1.2.22 1.587 0 2.381-.338 2.381-1.017 0-.218-.112-.4-.336-.548-.224-.147-.54-.271-.95-.374-.41-.102-1.064-.25-1.96-.442l-.864-.173c-1.306-.281-2.266-.752-2.88-1.411-.615-.66-.923-1.54-.923-2.641 0-.743.224-1.431.672-2.065.448-.634 1.086-1.14 1.911-1.517.826-.378 1.777-.567 2.853-.567 1.037 0 1.984.196 2.842.586.858.39 1.533.88 2.027 1.47.492.588.752 1.165.777 1.728a.406.406 0 0 1-.125.297zM151.417 1.622a.5.5 0 0 1 .154.365v2.036a.498.498 0 0 1-.154.365.5.5 0 0 1-.365.153h-3.38v9.853a.499.499 0 0 1-.154.365.498.498 0 0 1-.365.154h-2.516a.498.498 0 0 1-.365-.154.497.497 0 0 1-.153-.365V4.54h-3.38a.498.498 0 0 1-.366-.153.497.497 0 0 1-.153-.365V1.987c0-.14.05-.262.153-.365a.498.498 0 0 1 .365-.154h10.314a.5.5 0 0 1 .365.154zM161.059 6.577c.039.423.058.954.058 1.594 0 .628-.02 1.172-.058 1.633-.064.679-.298 1.22-.701 1.623-.403.403-.983.605-1.738.605-.756 0-1.335-.202-1.739-.605-.403-.404-.637-.944-.7-1.623a19.937 19.937 0 0 1-.058-1.633c0-.64.019-1.171.057-1.594.064-.678.298-1.22.701-1.623.404-.403.983-.605 1.739-.605.755 0 1.335.202 1.738.605.403.403.637.945.701 1.623zm-2.44-5.3c-1.216 0-2.266.23-3.15.69-.883.462-1.564 1.086-2.044 1.873a5.543 5.543 0 0 0-.798 2.641 50.144 50.144 0 0 0-.038 1.729c0 .435.013.999.038 1.69a5.54 5.54 0 0 0 .798 2.64c.48.788 1.161 1.412 2.045 1.873.883.461 1.933.692 3.15.692 1.216 0 2.266-.23 3.15-.692.883-.46 1.565-1.085 2.045-1.872a5.55 5.55 0 0 0 .797-2.641c.026-.346.039-.91.039-1.69 0-.794-.013-1.37-.039-1.729a5.554 5.554 0 0 0-.797-2.64c-.48-.788-1.162-1.412-2.045-1.873-.884-.461-1.934-.692-3.15-.692zM175.099 14.769a.828.828 0 0 1-.288-.298l-4.399-6.569v6.492a.498.498 0 0 1-.153.365.498.498 0 0 1-.365.154h-2.516a.497.497 0 0 1-.365-.154.498.498 0 0 1-.154-.365V1.987a.5.5 0 0 1 .154-.365.498.498 0 0 1 .365-.154h1.997a.87.87 0 0 1 .5.144.84.84 0 0 1 .288.298l4.398 6.569V1.987a.5.5 0 0 1 .154-.365.498.498 0 0 1 .365-.154h2.516a.5.5 0 0 1 .365.154.5.5 0 0 1 .153.365v12.407a.5.5 0 0 1-.153.365.499.499 0 0 1-.365.154h-1.998a.864.864 0 0 1-.5-.144z"/></g><g><path d="M66.54 24.606a.15.15 0 0 1 .04.11v.098a.134.134 0 0 1-.043.104.153.153 0 0 1-.107.039h-2.586a.14.14 0 0 1-.104-.04.14.14 0 0 1-.039-.103v-4.256c0-.043.013-.079.04-.107a.134.134 0 0 1 .103-.043h2.534c.047 0 .084.013.11.04.026.026.04.062.04.11v.097a.135.135 0 0 1-.043.105.153.153 0 0 1-.107.038H64.11v1.657h2.125a.15.15 0 0 1 .11.04c.027.025.04.062.04.11v.097a.134.134 0 0 1-.043.104.152.152 0 0 1-.107.039H64.11v1.722h2.32a.15.15 0 0 1 .11.039zM71.726 24.814a.134.134 0 0 1-.043.104.152.152 0 0 1-.107.039h-.117a.14.14 0 0 1-.104-.04.14.14 0 0 1-.039-.103v-4.256c0-.043.013-.079.04-.107a.134.134 0 0 1 .103-.043h.136c.057 0 .102.027.137.078l2.398 3.665v-3.593c0-.043.013-.079.039-.107a.135.135 0 0 1 .104-.043h.116c.048 0 .085.013.11.04.027.026.04.062.04.11v4.25a.153.153 0 0 1-.04.107.135.135 0 0 1-.103.042h-.143a.158.158 0 0 1-.136-.078l-2.391-3.652zM79.756 22.682c0 .26.003.455.007.585.017.468.142.813.373 1.033.232.221.55.332.952.332.403 0 .728-.115.975-.345.247-.229.37-.57.37-1.02v-.33h-1.13a.134.134 0 0 1-.104-.043.151.151 0 0 1-.04-.107v-.091c0-.044.014-.08.04-.108a.134.134 0 0 1 .104-.042h1.39c.048 0 .085.013.11.039a.15.15 0 0 1 .04.11v.573c0 .346-.07.651-.208.915a1.48 1.48 0 0 1-.605.618 1.904 1.904 0 0 1-.942.22c-.541 0-.961-.155-1.26-.467-.299-.312-.457-.73-.475-1.254-.004-.13-.006-.336-.006-.618 0-.281.002-.487.006-.617.018-.524.176-.942.475-1.254.299-.312.719-.468 1.26-.468.369 0 .678.07.93.208.25.14.438.303.562.491.123.188.189.356.198.504v.012a.105.105 0 0 1-.04.085.147.147 0 0 1-.097.032h-.143c-.039 0-.067-.008-.084-.026a.283.283 0 0 1-.052-.103 1.146 1.146 0 0 0-.426-.579c-.21-.156-.492-.234-.848-.234-.402 0-.72.11-.952.332-.231.22-.356.565-.373 1.033-.004.13-.007.325-.007.584zM90.451 24.606a.15.15 0 0 1 .04.11v.098a.135.135 0 0 1-.043.104.153.153 0 0 1-.107.039h-2.586a.14.14 0 0 1-.104-.04.14.14 0 0 1-.039-.103v-4.256c0-.043.013-.079.039-.107a.134.134 0 0 1 .104-.043h2.534c.047 0 .084.013.11.04.026.026.04.062.04.11v.097a.135.135 0 0 1-.043.105.153.153 0 0 1-.107.038H88.02v1.657h2.125a.15.15 0 0 1 .11.04c.026.025.04.062.04.11v.097a.134.134 0 0 1-.043.104.151.151 0 0 1-.107.039H88.02v1.722h2.32a.15.15 0 0 1 .11.039zM95.636 24.814a.134.134 0 0 1-.042.104.151.151 0 0 1-.107.039h-.117a.14.14 0 0 1-.104-.04.14.14 0 0 1-.039-.103v-4.256c0-.043.013-.079.04-.107a.133.133 0 0 1 .103-.043h.136c.057 0 .102.027.137.078l2.397 3.665v-3.593c0-.043.014-.079.04-.107a.134.134 0 0 1 .103-.043h.117c.048 0 .085.013.11.04.027.026.04.062.04.11v4.25a.153.153 0 0 1-.04.107.135.135 0 0 1-.103.042h-.143a.158.158 0 0 1-.137-.078l-2.39-3.652zM106.28 24.606a.15.15 0 0 1 .038.11v.098a.134.134 0 0 1-.042.104.153.153 0 0 1-.107.039h-2.586a.14.14 0 0 1-.104-.04.14.14 0 0 1-.039-.103v-4.256c0-.043.013-.079.039-.107a.134.134 0 0 1 .104-.043h2.534c.047 0 .084.013.11.04.026.026.04.062.04.11v.097a.136.136 0 0 1-.043.105.154.154 0 0 1-.107.038h-2.268v1.657h2.125a.15.15 0 0 1 .11.04c.026.025.04.062.04.11v.097a.134.134 0 0 1-.043.104.152.152 0 0 1-.107.039h-2.125v1.722h2.32a.15.15 0 0 1 .11.039zM113.895 24.606a.15.15 0 0 1 .039.11v.098a.134.134 0 0 1-.043.104.153.153 0 0 1-.107.039h-2.586a.14.14 0 0 1-.104-.04.14.14 0 0 1-.039-.103v-4.256c0-.043.013-.079.04-.107a.133.133 0 0 1 .103-.043h2.534c.048 0 .085.013.11.04.027.026.04.062.04.11v.097a.135.135 0 0 1-.043.105.153.153 0 0 1-.107.038h-2.268v1.657h2.125a.15.15 0 0 1 .11.04c.027.025.04.062.04.11v.097a.134.134 0 0 1-.043.104.152.152 0 0 1-.107.039h-2.125v1.722h2.32c.048 0 .085.013.11.039zM119.08 22.644v-1.846h1.215c.377 0 .657.077.841.231.184.154.276.384.276.692 0 .308-.092.538-.276.692-.184.154-.464.23-.841.23zm2.345-1.904c-.264-.221-.63-.332-1.098-.332h-1.514a.134.134 0 0 0-.104.043.152.152 0 0 0-.039.107v4.256a.14.14 0 0 0 .04.104c.025.026.06.039.103.039h.117c.044 0 .08-.013.108-.04a.134.134 0 0 0 .042-.103v-1.78h1.338l1.033 1.747c.035.06.069.105.101.134.033.028.081.042.147.042h.077a.125.125 0 0 0 .091-.04.125.125 0 0 0 .04-.09.162.162 0 0 0-.02-.071l-1.046-1.781c.316-.074.558-.216.727-.426.17-.21.254-.486.254-.828 0-.433-.132-.76-.397-.981zM126.968 24.918a.141.141 0 0 1-.104.039h-.124a.14.14 0 0 1-.104-.04.14.14 0 0 1-.038-.103V20.55a.14.14 0 0 1 .038-.103.139.139 0 0 1 .104-.04h.124a.14.14 0 0 1 .104.04.14.14 0 0 1 .039.103v4.263a.14.14 0 0 1-.04.104zM132.406 24.814a.134.134 0 0 1-.042.104.152.152 0 0 1-.107.039h-.117a.14.14 0 0 1-.104-.04.14.14 0 0 1-.04-.103v-4.256c0-.043.014-.079.04-.107a.134.134 0 0 1 .104-.043h.136c.056 0 .102.027.137.078l2.397 3.665v-3.593c0-.043.013-.079.039-.107a.135.135 0 0 1 .104-.043h.117c.048 0 .084.013.11.04.026.026.04.062.04.11v4.25a.153.153 0 0 1-.04.107.135.135 0 0 1-.103.042h-.143a.158.158 0 0 1-.137-.078l-2.39-3.652zM140.437 22.682c0 .26.003.455.007.585.017.468.141.813.373 1.033.232.221.55.332.952.332.403 0 .728-.115.975-.345.247-.229.37-.57.37-1.02v-.33h-1.13a.135.135 0 0 1-.105-.043.151.151 0 0 1-.038-.107v-.091c0-.044.013-.08.038-.108a.134.134 0 0 1 .105-.042h1.39c.048 0 .085.013.11.039.027.026.04.063.04.11v.573c0 .346-.07.651-.208.915a1.48 1.48 0 0 1-.605.618 1.903 1.903 0 0 1-.942.22c-.541 0-.962-.155-1.26-.467-.3-.312-.458-.73-.475-1.254-.004-.13-.006-.336-.006-.618 0-.281.002-.487.006-.617.017-.524.176-.942.475-1.254.298-.312.719-.468 1.26-.468.368 0 .678.07.93.208.25.14.438.303.562.491.123.188.189.356.198.504v.012a.105.105 0 0 1-.04.085.147.147 0 0 1-.097.032h-.143c-.039 0-.067-.008-.084-.026a.283.283 0 0 1-.052-.103 1.147 1.147 0 0 0-.426-.579c-.21-.156-.493-.234-.848-.234-.403 0-.72.11-.952.332-.232.22-.356.565-.373 1.033-.004.13-.007.325-.007.584z"/></g></symbol><symbol id="icon-mail" viewBox="0 0 21 16"><path d="M19.854 13.429c0 .77-.626 1.396-1.396 1.396H2.57c-.77 0-1.396-.626-1.396-1.396V2.575c0-.77.626-1.396 1.396-1.396h15.883c.77 0 1.396.626 1.396 1.396V13.43zM18.458 0H2.57A2.573 2.573 0 0 0 0 2.571v10.858A2.573 2.573 0 0 0 2.571 16h15.883a2.573 2.573 0 0 0 2.57-2.571V2.575A2.57 2.57 0 0 0 18.458 0z"/><path d="M13.26 7.865l5.14-4.611a.59.59 0 0 0 .044-.831.59.59 0 0 0-.831-.043l-7.09 6.364L9.14 7.508c-.005-.004-.009-.008-.009-.013a.868.868 0 0 0-.096-.082L3.406 2.375a.587.587 0 0 0-.83.048.587.587 0 0 0 .047.83l5.203 4.651-5.181 4.85a.59.59 0 0 0 .805.862l5.26-4.92 1.426 1.275a.587.587 0 0 0 .783-.005l1.466-1.313 5.229 4.967a.587.587 0 0 0 .81-.853z"/></symbol><symbol id="icon-phone" viewBox="0 0 20 21"><path d="M17.341 17.17c-.004 0-.004.005 0 0-.164.178-.333.338-.515.515-.275.262-.554.536-.816.845-.427.455-.93.67-1.59.67-.063 0-.13 0-.194-.004-1.256-.08-2.422-.57-3.297-.987a18.774 18.774 0 0 1-6.24-4.88C3.248 11.594 2.284 9.99 1.646 8.268c-.394-1.051-.537-1.87-.474-2.643.042-.493.233-.903.584-1.253l1.441-1.44c.207-.194.427-.3.643-.3.266 0 .481.161.617.296l.012.013c.258.24.503.49.761.755.131.135.267.27.402.41l1.154 1.152c.448.448.448.861 0 1.309-.123.122-.241.245-.364.363-.355.363-.693.7-1.06 1.03-.01.008-.018.012-.022.02-.363.364-.296.718-.22.96l.013.037c.3.726.723 1.41 1.366 2.225l.004.004c1.166 1.435 2.397 2.554 3.754 3.41.173.11.35.199.52.283.152.076.295.148.418.224.017.008.034.021.05.03a.917.917 0 0 0 .42.105c.35 0 .57-.22.642-.291l1.446-1.444c.143-.143.372-.316.638-.316.262 0 .478.164.609.308l.008.008 2.33 2.326c.435.43.435.874.004 1.321zm-1.513-4.445c-.41-.426-.905-.654-1.429-.654-.52 0-1.018.224-1.445.65l-1.336 1.33c-.11-.06-.22-.114-.326-.169a5.284 5.284 0 0 1-.418-.224c-1.252-.793-2.389-1.827-3.48-3.166-.528-.666-.883-1.228-1.14-1.798.346-.316.667-.646.98-.962l.355-.359c.888-.886.888-2.035 0-2.921L6.435 3.3c-.13-.131-.266-.266-.393-.401-.254-.262-.52-.532-.795-.786-.41-.405-.9-.62-1.416-.62-.516 0-1.014.215-1.437.62l-.009.009L.948 3.57a3.086 3.086 0 0 0-.917 1.963c-.102 1.232.262 2.38.54 3.132.686 1.844 1.709 3.554 3.235 5.386a19.889 19.889 0 0 0 6.624 5.18c.972.46 2.27 1.004 3.72 1.097.089.004.182.008.266.008.977 0 1.797-.35 2.44-1.047.004-.008.012-.012.016-.02.22-.267.474-.507.74-.765.182-.173.368-.354.55-.544.418-.435.638-.942.638-1.46 0-.524-.224-1.027-.651-1.449zM10.823 5.094a5.363 5.363 0 0 1 2.917 1.51 5.378 5.378 0 0 1 1.513 2.913.567.567 0 0 0 .562.473c.034 0 .064-.004.098-.008a.57.57 0 0 0 .469-.659 6.508 6.508 0 0 0-1.83-3.524 6.523 6.523 0 0 0-3.53-1.828.574.574 0 0 0-.66.464.564.564 0 0 0 .461.659zM20.005 9.159a10.706 10.706 0 0 0-3.014-5.805 10.732 10.732 0 0 0-5.813-3.01.568.568 0 1 0-.186 1.124 9.61 9.61 0 0 1 5.195 2.689 9.558 9.558 0 0 1 2.693 5.187.567.567 0 0 0 .562.473c.034 0 .064-.004.098-.008a.56.56 0 0 0 .465-.65z"/></symbol><symbol id="icon-pin-sm" viewBox="0 0 19 24"><path stroke-miterlimit="50" stroke-width="1.2" d="M9.605 13.028c-2.3 0-4.17-1.871-4.17-4.171 0-2.3 1.87-4.171 4.17-4.171s4.171 1.871 4.171 4.17c0 2.3-1.87 4.172-4.17 4.172zm0-12.46c-4.57 0-8.29 3.718-8.29 8.289 0 5.672 7.42 14 7.735 14.352.297.33.815.33 1.11 0 .317-.352 7.735-8.68 7.735-14.352 0-4.571-3.719-8.29-8.29-8.29z"/></symbol><symbol id="icon-pin" viewBox="0 0 22 30"><path d="M11.427 16.09a5.392 5.392 0 0 1-5.386-5.385 5.392 5.392 0 0 1 5.386-5.386 5.392 5.392 0 0 1 5.386 5.386 5.392 5.392 0 0 1-5.386 5.386zm0-16.09C5.524 0 .722 4.802.722 10.705c0 7.325 9.58 18.08 9.988 18.533a.964.964 0 0 0 1.434 0c.408-.454 9.988-11.208 9.988-18.533C22.132 4.802 17.33 0 11.427 0z"/></symbol><symbol id="icon-proectirov" viewBox="0 0 71 70"><path d="M3.205 58.332H19.54v9.333H3.205zm9.334-11.666h16.333v9.333H12.54zm-9.334-7H5.54a1.167 1.167 0 1 0 0-2.333H3.205v-2.334H19.54v9.333H3.205zm24.84-1.09a2.67 2.67 0 0 0 2.723 1.04l7.438-1.581v6.297H21.872V35h6.297l-.361.673a2.68 2.68 0 0 0 .238 2.904zm13.021-22.643a.244.244 0 0 1 .213-.137l.023-.001a.384.384 0 0 1 .31.165l5.27 7.027-4.813 3.61a1.167 1.167 0 0 0 1.4 1.868l4.814-3.61 5.271 7.026a.376.376 0 0 1 .064.366.245.245 0 0 1-.19.166l-23.146 4.922a.38.38 0 0 1-.37-.159.372.372 0 0 1-.048-.4zm15.807 28.4H40.539v-6.794l11.941-2.54h4.393zm9.333 11.666H49.872v-9.333h16.334zm-9.333 11.666H40.539v-9.333h16.334zm-25.667-21h16.333V56H31.206zm-9.334 11.667h16.334v9.333H21.872zM66.024 2.565a1.167 1.167 0 0 1 1.633.233l.649.865a1.167 1.167 0 0 1-.234 1.633l-8.693 6.521-2.048-2.73zM2.04 70h56c.645 0 1.167-.523 1.167-1.167v-10.5h8.166c.645 0 1.167-.522 1.167-1.166V45.499c0-.644-.522-1.167-1.167-1.167h-8.166v-10.5c0-.644-.523-1.167-1.167-1.167h-2.141a2.698 2.698 0 0 0-.477-2.184l-5.272-7.027 2.434-1.826a4.033 4.033 0 0 0 1.61-3.456l-.117-2.101a1.705 1.705 0 0 1 .68-1.46l2.433-1.826 1.025 1.365a1.166 1.166 0 0 0 1.633.233l9.626-7.221a3.5 3.5 0 0 0 .7-4.899l-.65-.865a3.504 3.504 0 0 0-4.9-.699L55 7.92a1.167 1.167 0 0 0-.233 1.634l1.023 1.366-2.433 1.825a4.03 4.03 0 0 0-1.61 3.456l.117 2.101a1.703 1.703 0 0 1-.68 1.46l-2.433 1.826-5.272-7.027a2.705 2.705 0 0 0-2.375-1.09 2.588 2.588 0 0 0-2.093 1.357l-9.586 17.838H2.039c-.645 0-1.167.523-1.167 1.167V45.5c0 .644.522 1.167 1.167 1.167h8.166V56H2.04c-.645 0-1.167.522-1.167 1.167v11.666c0 .645.522 1.167 1.167 1.167z"/><path d="M16.039 38.499c0-.644-.522-1.167-1.167-1.167h-4.667a1.167 1.167 0 0 0 0 2.334h4.667c.645 0 1.167-.523 1.167-1.167z"/></symbol><symbol id="icon-set-communicate" viewBox="0 0 71 70"><path d="M35.864 57.582a5.652 5.652 0 0 1-5.645-5.646 5.652 5.652 0 0 1 5.645-5.645 5.652 5.652 0 0 1 5.645 5.645 5.652 5.652 0 0 1-5.645 5.646zm0-13.549c-4.358 0-7.903 3.547-7.903 7.903 0 4.357 3.545 7.904 7.903 7.904s7.904-3.547 7.904-7.904c0-4.356-3.546-7.903-7.904-7.903zM5.38 38.388V36.13h6.775v2.258zM5.38 42.904v-2.258h6.775v2.258zM59.574 38.388V36.13h6.774v2.258zM59.574 42.904v-2.258h6.774v2.258z"/><path d="M68.606 45.162h-11.29v-11.29h11.29zM39.251 16.936v-2.258a2.26 2.26 0 0 1 2.258-2.258 2.26 2.26 0 0 1 2.259 2.258 2.26 2.26 0 0 1-2.259 2.258zm2.822 8.486l-.564.326v2.479h-2.258v-9.033h2.258a4.52 4.52 0 0 0 4.517-4.516 4.52 4.52 0 0 0-4.517-4.516 4.52 4.52 0 0 0-4.516 4.516v2.258h-2.258v-2.258a4.52 4.52 0 0 0-4.516-4.516 4.52 4.52 0 0 0-4.516 4.516 4.52 4.52 0 0 0 4.516 4.516h2.258v9.033H30.22v-2.479l-.563-.326a12.43 12.43 0 0 1-6.208-11.035c.148-6.437 5.499-11.873 11.929-12.118a12.323 12.323 0 0 1 9.1 3.46 12.318 12.318 0 0 1 3.807 8.95c0 4.407-2.38 8.524-6.211 10.743zm-.678 9.579a5.656 5.656 0 0 1-5.53 4.516 5.656 5.656 0 0 1-5.532-4.516h11.062zm-6.66-6.774v-9.033h2.258v9.033zm-2.258-11.29H30.22a2.26 2.26 0 0 1-2.258-2.259 2.26 2.26 0 0 1 2.258-2.258 2.26 2.26 0 0 1 2.258 2.258zm9.032 13.548v2.258H30.22v-2.258zm3.797 8.54l3.47 3.47-2.17 3.191.306.595c.313.612.572 1.232.77 1.844l.205.637 3.784.721v4.907l-3.785.721-.205.637a12.418 12.418 0 0 1-.77 1.844l-.306.595 2.17 3.191-3.47 3.469-3.192-2.169-.596.306c-.616.315-1.236.575-1.842.77l-.637.207-.72 3.782H33.41l-.722-3.784-.636-.206a12.375 12.375 0 0 1-1.843-.77l-.596-.306-3.192 2.169-3.47-3.469 2.17-3.191-.305-.595a12.54 12.54 0 0 1-.77-1.844l-.206-.637-3.783-.72v-4.907l3.784-.721.206-.637c.197-.612.456-1.232.77-1.844l.306-.595-2.17-3.192 3.47-3.468 3.192 2.169.596-.306c.385-.199.776-.368 1.166-.52a7.835 7.835 0 0 0 4.486 1.406 7.848 7.848 0 0 0 4.49-1.407c.387.153.776.322 1.166.52l.595.307zm-22.99-29.88v-.112H12.155V6.775h11.423c-.49.749-.913 1.54-1.262 2.37zm-1.068 4.404h-9.093v-2.258h9.45a14.13 14.13 0 0 0-.357 2.258zm33.81-6.774v2.258h-5.64a14.505 14.505 0 0 0-1.196-2.258zm2.258 0h2.258v6.774h-2.258zm4.516 0h3.387a3.391 3.391 0 0 1 3.387 3.387 3.391 3.391 0 0 1-3.387 3.387h-3.387zm-6.774 6.774h-4.573a14.576 14.576 0 0 0-.349-2.258h4.922zM14.413 45.162H3.123v-11.29h11.29zM9.897 13.05l-6.45-2.418a.502.502 0 0 1 0-.937l6.45-2.419zm54.193 7.274H49.386c.598-1.424.96-2.947 1.083-4.516h14.75a5.652 5.652 0 0 0 5.645-5.645 5.652 5.652 0 0 0-5.645-5.645H46.432c-.132-.137-.252-.281-.39-.414-2.9-2.792-6.72-4.245-10.75-4.092-3.842.148-7.355 1.865-9.914 4.506H10.82L2.655 7.58a2.77 2.77 0 0 0-1.79 2.583 2.77 2.77 0 0 0 1.789 2.583l8.167 3.062h10.432a14.58 14.58 0 0 0 1.093 4.517H7.638v11.29H.864V47.42h15.807V31.614H9.897v-9.032h13.548v-.152c1.138 1.82 2.653 3.41 4.516 4.603v1.194h-2.258v2.258h2.258v2.258h-2.258V35h2.348a7.858 7.858 0 0 0 1.233 3.24l-3.137-2.132-6.112 6.11 2.476 3.643c-.14.308-.27.62-.388.93l-4.323.824v8.641l4.323.823c.117.31.247.622.388.93l-2.476 3.644 6.112 6.11 3.643-2.474c.31.142.62.272.93.389L31.543 70h8.642l.824-4.322c.31-.117.62-.247.93-.39l3.643 2.475 6.111-6.11-2.476-3.643c.141-.309.271-.62.389-.93l4.323-.824v-8.641l-4.323-.823c-.118-.31-.248-.623-.389-.93l2.476-3.644-6.111-6.11-3.138 2.131a7.846 7.846 0 0 0 1.232-3.238h2.35v-2.258h-2.258v-2.258h2.258v-2.258h-2.258v-1.195c1.858-1.19 3.375-2.786 4.516-4.612v.16h13.548v9.033h-6.774V47.42h15.806V31.614H64.09z"/></symbol><symbol id="icon-stroy-mont" viewBox="0 0 70 70"><path d="M50.806 53.065a5.652 5.652 0 0 1-5.645-5.646 5.6 5.6 0 0 1 1.048-3.266l-1.84-1.31a7.853 7.853 0 0 0-1.466 4.576c0 4.357 3.547 7.904 7.903 7.904a7.852 7.852 0 0 0 4.577-1.467l-1.31-1.84a5.601 5.601 0 0 1-3.267 1.048z"/><path d="M67.742 67.742H2.258V27.097H46.29v8.771c-.406.16-.806.333-1.193.534l-2.42-1.612-4.501 4.501 1.614 2.42c-.326.627-.597 1.28-.811 1.954l-2.85.572v6.366l2.85.572c.213.674.485 1.328.81 1.954l-1.613 2.42 4.501 4.5 2.42-1.613c.627.326 1.28.597 1.954.811l.573 2.85h6.366l.572-2.85a12.238 12.238 0 0 0 1.954-.81l2.42 1.613 4.501-4.501-1.614-2.42c.326-.627.597-1.28.811-1.954l2.85-.573v-6.366l-2.85-.572a12.238 12.238 0 0 0-.81-1.954l1.613-2.42-4.501-4.501-2.42 1.612a12.157 12.157 0 0 0-1.193-.534V19.194a2.26 2.26 0 0 1 2.258 2.258v7.903a3.392 3.392 0 0 0 3.387 3.387h2.258v-2.258h-2.258a1.13 1.13 0 0 1-1.13-1.13v-2.257h7.904zM4.516 18.676c0-1.108.794-2.045 1.887-2.227l4.887-.815v-2.2a5.65 5.65 0 0 0 2.258 0v2.2l4.888.814a2.253 2.253 0 0 1 1.887 2.228v6.163H4.516zm4.516-13.03a3.392 3.392 0 0 1 3.387-3.388 3.392 3.392 0 0 1 3.387 3.387v2.258a3.392 3.392 0 0 1-3.387 3.387 3.392 3.392 0 0 1-3.387-3.387zm16.936 13.03c0-1.108.794-2.045 1.886-2.227l4.888-.815v-2.2a5.65 5.65 0 0 0 2.258 0v2.2l4.888.814a2.253 2.253 0 0 1 1.886 2.228v6.163H25.968zm4.516-13.03a3.392 3.392 0 0 1 3.387-3.388 3.392 3.392 0 0 1 3.387 3.387v2.258a3.392 3.392 0 0 1-3.387 3.387 3.392 3.392 0 0 1-3.387-3.387zm22.58 33.87h-4.516V19.194h4.517zm-4.516 2.258h4.517v1.882l-2.259 3.01-2.258-3.01zm10.985.461c.495.832.87 1.734 1.11 2.68l.176.69 2.407.48v2.667l-2.407.48-.175.69a10.121 10.121 0 0 1-1.111 2.68l-.364.611 1.362 2.045-1.885 1.884-2.044-1.361-.611.364c-.832.495-1.734.87-2.68 1.11l-.69.176-.481 2.408h-2.666l-.48-2.407-.69-.176a10.122 10.122 0 0 1-2.68-1.11l-.612-.364-2.044 1.361-1.885-1.884 1.362-2.045-.364-.61a10.085 10.085 0 0 1-1.11-2.68l-.176-.69-2.408-.481v-2.666l2.407-.48.175-.69a10.14 10.14 0 0 1 1.111-2.68l.363-.612-1.36-2.044 1.884-1.885 2.044 1.362.611-.364c.215-.127.445-.223.668-.335v6.05l4.516 6.023 4.517-6.023v-.366a5.654 5.654 0 0 1 1.129 3.377 5.601 5.601 0 0 1-1.048 3.267l1.84 1.31a7.858 7.858 0 0 0 1.466-4.578c0-2.584-1.289-4.997-3.387-6.467v-2.594c.223.112.453.208.668.335l.61.363 2.045-1.36 1.885 1.884-1.362 2.044zm-6.468-27.558v2.258h-4.517v-2.258zm-3.388-9.032h2.258v2.258h-2.258zM59.84 24.84v-3.387a4.52 4.52 0 0 0-4.516-4.517V12.42h-3.388v-2.258h2.259V3.387H47.42v6.774h2.258v2.258H46.29v12.42h-2.258v-6.163a4.502 4.502 0 0 0-3.774-4.454l-3-.501v-1.302h-.035c1.383-1.03 2.293-2.663 2.293-4.516V5.645A5.652 5.652 0 0 0 33.871 0a5.652 5.652 0 0 0-5.645 5.645v2.258c0 1.853.91 3.487 2.293 4.516h-.035v1.302l-3 .5a4.5 4.5 0 0 0-3.774 4.455v6.163h-1.13v-6.163a4.502 4.502 0 0 0-3.773-4.454l-3-.501v-1.302h-.035c1.382-1.03 2.293-2.663 2.293-4.516V5.645A5.652 5.652 0 0 0 12.419 0a5.652 5.652 0 0 0-5.645 5.645v2.258c0 1.853.91 3.487 2.293 4.516h-.035v1.302l-3 .5a4.5 4.5 0 0 0-3.774 4.455v6.163H0V70h70V24.839z"/><path d="M33.871 30.484h2.258v2.258h-2.258zM29.355 30.484h2.258v2.258h-2.258zM24.839 30.484h2.258v2.258h-2.258zM27.163 46.424l2.89-5.779h6.076v-2.258h-7.472l-1.627 3.254L23.236 35H4.516v2.258h17.41z"/><path d="M4.516 39.516h16.936v2.258H4.516zM4.516 44.032h16.936v2.258H4.516zM30.484 57.58h-2.258v5.646h-2.258v-9.032H23.71v9.032h-2.258V48.548h-2.258v14.678h-2.258v-9.032h-2.259v9.032H12.42V57.58h-2.258v5.645H7.903v2.258h24.839v-2.258h-2.258zM63.226 63.226h2.258v2.258h-2.258zM58.71 63.226h2.258v2.258H58.71zM54.194 63.226h2.258v2.258h-2.258z"/></symbol><symbol id="icon-youtube" viewBox="0 0 21 14"><path d="M7.636 10.818V3.182L14 7zM19.498 1.35C18.946.367 18.346.186 17.126.117 15.906.034 12.84 0 10.184 0c-2.66 0-5.728.034-6.946.116C2.02.186 1.419.366.862 1.349.292 2.33 0 4.021 0 6.996v.01c0 2.963.293 4.666.862 5.637.557.983 1.157 1.161 2.375 1.244 1.219.071 4.286.113 6.947.113 2.657 0 5.723-.042 6.943-.112 1.22-.083 1.82-.26 2.372-1.243.574-.972.865-2.674.865-5.637v-.012c0-2.976-.29-4.667-.866-5.648z"/></symbol></svg>